<svg xmlns="http://www.w3.org/2000/svg" width="20" height="20" viewBox="0 0 20 20" preserveAspectRatio="none"><path fill="#169bf4" d="M18.486 12.75h-6.653v1.833L10 15.5l-1.833-.917V12.75H1.513l-.559 4.477a1.73 1.73 0 0 0 .41 1.362c.325.368.8.578 1.303.578h14.666c.503 0 .977-.21 1.302-.578.323-.366.474-.863.41-1.362zM8.167 4.507a1.84 1.84 0 0 1 1.83-1.844c1.01 0 1.829.828 1.829 1.844zm8.246-.01h-2.75A3.67 3.67 0 0 0 9.997.83 3.67 3.67 0 0 0 6.33 4.497H3.58a2.753 2.753 0 0 0-2.75 2.75v3.666c0 .464.351.833.798.893l-.003.024h6.538v-.917h3.667v.917h6.539l-.003-.024a.906.906 0 0 0 .797-.893V7.247a2.753 2.753 0 0 0-2.75-2.75z"/></svg>