<svg width="1440" height="1412" viewBox="0 0 1440 1412" fill="none" xmlns="http://www.w3.org/2000/svg" preserveAspectRatio="none"><g opacity=".168"><path fill-rule="evenodd" clip-rule="evenodd" d="M990.851 1084.57c-46.22 65.32-58.381 148.82-32.711 224.61 33.8 99.9 128.93 171.22 240.06 169.82 66.31-.84 129.57-28 175.86-75.49a250.029 250.029 0 0 0 70.94-177.75c-1.4-106.93-69.72-197.32-164.62-231.76a249.17 249.17 0 0 0-71.86-14.68c-5.52-.32-11.13-.4-16.74-.32-80.01 1.007-154.71 40.25-200.929 105.57zm388.959 175.72c-15.12 89.26-91.87 154.97-182.4 156.15-103.52 1.34-188.52-81.5-189.86-185.01-1.33-103.52 81.5-188.52 185.02-189.86 4.23-.03 8.41.04 12.56.25 18.36.98 36.48 4.66 53.77 10.92l.1.05c85.09 30.92 135.92 118.24 120.81 207.5z" fill="#90C0FC"/><path d="M1080.23 1080.8l-38.32-49.47c-84.239 65.33-117.863 176.84-83.78 277.85l59.27-20.07c-25.542-75.73-.33-159.33 62.83-208.31z" fill="#169BF4"/><path d="M1280.38 994l-21.38 58.79-.1-.05c-60.43-21.84-127.84-11.25-178.67 28.06l-38.32-49.47c67.85-52.468 157.83-66.554 238.47-37.33z" fill="#4772B0"/><path d="M1394.71 1379.38a248.823 248.823 0 0 0 50.29-153.62c-1.4-106.93-69.72-197.32-164.62-231.76l-21.48 58.74.1.05c56.07 20.36 99.1 66.2 115.88 123.44 16.79 57.24 5.32 119.06-30.88 166.47l50.71 36.68z" fill="#70A5EE"/></g><g opacity=".168"><path fill-rule="evenodd" clip-rule="evenodd" d="M80.224 1427.44c-35.953 50.68-45.412 115.47-25.445 174.28 26.292 77.51 100.288 132.85 186.731 131.76 51.581-.65 100.789-21.72 136.793-58.57 36.003-36.86 55.853-86.47 55.18-137.92-1.089-82.97-54.231-153.11-128.049-179.83a194.263 194.263 0 0 0-55.897-11.39c-4.293-.25-8.657-.31-13.021-.25-62.237.78-120.339 31.24-156.292 81.92zm302.549 136.34c-11.76 69.26-71.461 120.25-141.878 121.16-80.521 1.04-146.639-63.23-147.678-143.56-1.04-80.32 63.393-146.27 143.914-147.31 3.29-.02 6.541.03 9.769.2 14.284.76 28.377 3.61 41.825 8.47l.078.04c66.188 23.99 105.729 91.74 93.97 161z" fill="#90C0FC"/><path d="M149.5 1424.96l-29.748-38.46c-65.397 50.79-91.5 137.48-65.04 216l46.012-15.6c-19.829-58.88-.254-123.87 48.776-161.94z" fill="#169BF4"/><path d="M305 1357.63l-16.586 45.63-.078-.04c-46.883-16.95-99.176-8.73-138.608 21.78L120 1386.6c52.636-40.72 122.444-51.65 185-28.97z" fill="#4772B0"/><path d="M393.802 1657c26.015-34.28 39.803-76.22 39.178-119.19-1.091-82.96-54.315-153.09-128.246-179.81L288 1403.57l.078.04c43.681 15.8 77.202 51.36 90.277 95.77 13.075 44.42 4.142 92.38-24.059 129.16l39.506 28.46z" fill="#70A5EE"/></g><path fill-rule="evenodd" clip-rule="evenodd" d="M0 100h1440v360H0V100z" fill="#169BF4"/><mask id="a" maskUnits="userSpaceOnUse" x="0" y="100" width="1440" height="360"><path fill-rule="evenodd" clip-rule="evenodd" d="M0 100h1440v360H0V100z" fill="#fff"/></mask><g opacity=".3" mask="url(#a)"><path fill-rule="evenodd" clip-rule="evenodd" d="M1294.65 330h-2.61v48.265H1283v246.771h9.04V643h2.61v-17.964H1306V378.265h-11.35V330zM491.683 74h-2.608v76.034H480v212.07h9.075V387h2.608v-24.896H503v-212.07h-11.317V74z" fill="#FEFEFE"/><mask id="b" maskUnits="userSpaceOnUse" x="517" y="-40" width="24" height="161"><path fill-rule="evenodd" clip-rule="evenodd" d="M517.48-39.911h22.819v160.397H517.48V-39.911z" fill="#fff"/></mask><g mask="url(#b)"><path fill-rule="evenodd" clip-rule="evenodd" d="M517.48-39.911V89.854h10.833v30.632h2.587V89.854h9.399V-39.91H517.48z" fill="#FEFEFE"/></g><path fill-rule="evenodd" clip-rule="evenodd" d="M613.771-31h-2.608V3.219H601v155.658h10.163V167h2.608v-8.123H624V3.219h-10.229V-31zm637.239 302h-2.6v31.011H1239v155.971h9.41V564h2.6V457.982H1262V302.011h-10.99V271zM451.356 120.176V95H451v150h.356v-60.214H463v-64.61h-11.644zM620.43 191h-2.608v16.723H608v113.788h9.822V341h2.608v-19.489H631V207.723h-10.57V191zm716.39 163h-2.61v54.01H1324v155.913h10.21V625h2.61v-61.077H1347V408.01h-10.18V354zm-126.17 2h-2.61v65.853H1198v161.221h10.04V627h2.61v-43.926H1221V421.853h-10.35V356zm170.06-33h-2.6v64.678H1369v106.516h9.11V549h2.6v-54.806H1392V387.678h-11.29V323zM662.551 217h-2.608v41.578H651v212.065h8.943V530h2.608v-59.357H674V258.578h-11.449V217zM532.85 227h-2.607v109.762H521v112.951h9.243V498h2.607v-48.287H544V336.762h-11.15V227zm46.46-17h-2.608v54.773H566v113.706h10.702V425h2.608v-46.521H589V264.773h-9.69V210zm125.664-68h-2.607v100.082H693v283.801h9.367V557h2.607v-31.117H716V242.082h-11.026V142zm45.638 23h-2.607v47.396H737v283.821h11.005V538h2.607v-41.783H760V212.396h-9.388V165zm40.209 2h-2.607v71.168H778v168.689h10.214V480h2.607v-73.143H801V238.168h-10.179V167zm38.693-67h-2.607v71.779H817v102.203h9.907V344h2.607v-70.018H840V171.779h-10.486V100zm75.045 53h-2.608v111.349H893V441.01h8.951V526h2.608v-84.99H916V264.349h-11.441V153zm-38.262 42h-2.607v24.918H854v102.355h9.69V329h2.607v-6.727H877V219.918h-10.703V195zm83.375-14h-2.607v9.722H937v118.487h10.065V354h2.607v-44.791H960V190.722h-10.328V181zm41.21 79h-2.608v29.398H979v118.703h9.274V432h2.608v-23.899H1002V289.398h-11.118V260zm38.738-17h-2.61v70.525H1016v118.583h11.01V485h2.61v-52.892h9.38V313.525h-9.38V243zm35.79-29h-2.61v41.136h-9.8v118.318h9.8V409h2.61v-35.546H1076V255.136h-10.59V214zm35.61-51h-2.61v23.791H1088v113.794h10.41V409h2.61V300.585h9.98V186.791h-9.98V163zm41.21-181h-2.61v62.493H1129v212.348h10.62V286h2.61v-29.159h9.77V44.493h-9.77V-18zm42.55 12h-2.61v34.907H1172V312.56h10.17V353h2.61v-40.439H1195V28.907h-10.22V-6zm41.37 8h-2.61v62.3H1214v106.558h9.54V227h2.61v-56.142H1237V64.3h-10.85V2z" fill="#FEFEFE"/><mask id="c" maskUnits="userSpaceOnUse" x="1256" y="-40" width="24" height="222"><path fill-rule="evenodd" clip-rule="evenodd" d="M1256.59-39.91h22.82v221.22h-22.82V-39.91z" fill="#fff"/></mask><g mask="url(#c)"><path fill-rule="evenodd" clip-rule="evenodd" d="M1256.59-39.91v193.983h10.32v27.237h2.59v-27.237h9.91V-39.911h-22.82z" fill="#FEFEFE"/></g></g><path fill-rule="evenodd" clip-rule="evenodd" d="M0 0h1440v538.843L0 672V0z" fill="url(#paint0_linear)"/><g opacity=".168"><path fill-rule="evenodd" clip-rule="evenodd" d="M75.214 363.176c-39.465 55.777-49.849 127.077-27.93 191.795 28.859 85.306 110.084 146.207 204.971 145.012a213.451 213.451 0 0 0 150.156-64.466 213.496 213.496 0 0 0 60.571-151.78c-1.196-91.309-59.53-168.495-140.559-197.904a212.756 212.756 0 0 0-61.356-12.535c-4.713-.273-9.503-.342-14.293-.273-68.318.86-132.095 34.373-171.56 90.151zm332.103 150.048c-12.908 76.223-78.441 132.331-155.736 133.338-88.387 1.141-160.964-69.592-162.105-157.988-1.141-88.395 69.585-160.979 157.972-162.12 3.612-.025 7.181.034 10.724.214a159.831 159.831 0 0 1 45.911 9.324l.085.043C376.822 362.44 420.226 437 407.317 513.224z" fill="#90C0FC"/><path d="M151.5 360.519L118.918 318.5c-71.624 55.49-100.213 150.206-71.234 236l50.395-17.047C76.362 473.128 97.8 402.12 151.5 360.519z" fill="#169BF4"/><path d="M322.5 286.308l-18.29 50.251-.085-.043c-51.699-18.668-109.362-9.62-152.844 23.984L118.5 318.216c58.041-44.847 135.019-56.887 204-31.908z" fill="#4772B0"/><path d="M420.517 615.5c28.528-37.604 43.646-83.616 42.961-130.747-1.196-91.009-59.559-167.941-140.629-197.253L304.5 337.494l.085.043c47.899 17.329 84.657 56.34 98.994 105.06 14.337 48.72 4.541 101.33-26.382 141.684l43.32 31.219z" fill="#70A5EE"/></g><path fill-rule="evenodd" clip-rule="evenodd" d="M1010.21 231.206C1149.95 363.877 1255 467.98 1311 494c56 26.02 147.06 53.5 183.87 48s-58.02-584-58.02-584H1279s31 122.087 0 187.367c-31 65.279-85.41 89.158-143.95 89.158-58.54 0-115.98-17.69-115.98-17.69s-148.598-118.3-8.86 14.371z" fill="#009CFB"/><path d="M902.771 198.253s-3.031 33.203 30.9 69.942c33.931 36.739 49.096 38.432 42.329 16.371-6.767-22.06-7.008-48.417-1.331-58.25l-71.898-28.063z" fill="url(#paint1_linear)"/><path d="M938.886 135.7s27.239-19.227 76.024-8.222c48.79 11.004 57.83 23.304 35.35 28.472-22.49 5.167-45.44 18.142-51.115 27.973L938.886 135.7z" fill="url(#paint2_linear)"/><path d="M1033.94 217.646s15.17-3.141 33.95 7.699c18.78 10.841 22.91 25.504 22.09 26.915-.81 1.412-4.04 1.801-4.04 1.801s11.31 11.046 9.27 14.573c-2.04 3.527-22.52-2.081-23.93-1.583-1.4.498.75 2.301-.52 5.151-1.27 2.851-14-.209-26.56-7.461l-.08-.05c-18.5-10.817-22.85-25.089-22.85-25.089l12.67-21.956z" fill="url(#paint3_linear)"/><path d="M1032.28 223.838s15.56 1.44 28.55 8.939c12.99 7.499 14.36 12.325 13.57 13.689-.79 1.365-5.2.901-5.2.901s5.69 5.238 4.22 7.775c-1.46 2.537-10.64-.035-12.98-.73 0 0 1.21 1.738.25 3.398-.95 1.659-10.21-.952-18.47-5.722-8.26-4.77-17.68-18.143-17.68-18.143l7.74-10.107z" fill="#FFE04E"/><path d="M1015.78 221.783l10.74-18.612s6.98 4.674 8.85 8.542c1.87 3.868-1.86 13.284-4.9 18.555-3.04 5.271-9.34 13.187-13.61 13.514-4.28.326-11.83-3.393-11.83-3.393l10.75-18.606z" fill="url(#paint4_linear)"/><path d="M858.352 178.375c-31.694-28.06-51.584-67.709-47.447-74.874 4.136-7.164 48.302-9.562 88.444 3.865 40.143 13.426 93.193 45.122 112.551 68.415 16.62 19.988 18.51 26.697 13.89 34.702l-14.92 25.838c-4.62 8.005-11.376 9.726-36.996 5.327-29.844-5.112-83.828-35.213-115.522-63.273z" fill="url(#paint5_linear)"/><path d="M859.752 111.227l2.653-8.018s43.08 8.285 74.393 26.364c31.313 18.079 72.972 57.695 78.312 63.582 5.35 5.886-32.339-26.391-81.172-54.585-48.832-28.193-74.186-27.343-74.186-27.343z" fill="url(#paint6_linear)"/><path d="M848.232 125.199c-6.982 12.094-13.324 18.672-17.703 22.17-14.643-20.32-22.351-39.144-19.624-43.868 2.727-4.723 22.817-7.361 47.689-4.786-.836 5.547-3.352 14.343-10.362 26.484z" fill="url(#paint7_linear)"/><path d="M904.036 157.28c6.757-11.704 2.744-26.671-8.962-33.43-11.707-6.759-26.675-2.751-33.433 8.953-6.757 11.704-2.745 26.671 8.962 33.43s26.675 2.751 33.433-8.953z" fill="url(#paint8_linear)"/><path d="M899.056 154.405c5.17-8.955 2.1-20.406-6.857-25.577-8.956-5.171-20.408-2.104-25.578 6.85-5.17 8.955-2.1 20.406 6.857 25.577 8.956 5.171 20.408 2.104 25.578-6.85z" fill="url(#paint9_linear)"/><path d="M815.845 104.568c-.166 2.401 18.184-.823 36.273 5.298a45.97 45.97 0 0 0 2.7-8.293s-38.59-2.713-38.973 2.995z" fill="url(#paint10_linear)"/><path d="M974.981 130.821s18.828-2.683 40.479 2.641c21.65 5.324 38.47 10.253 36.48 14.155-1.98 3.902-8.78 3.699-8.78 3.699s-39.83-17.976-68.179-20.495z" fill="url(#paint11_linear)"/><path d="M927.737 253.169s18.474 23.433 33.774 33.584c15.301 10.151.259-6.894.259-6.894s-19.996-13.745-34.033-26.69z" fill="url(#paint12_linear)"/><g opacity=".5" fill="#fff"><rect x="909.879" y="183.923" width="41.755" height="11.107" rx="2.46" transform="rotate(-60 909.879 183.923)"/><rect x="923.084" y="191.546" width="29.023" height="11.107" rx="2.46" transform="rotate(-60 923.084 191.546)"/><rect x="936.286" y="199.169" width="14.511" height="11.107" rx="2.46" transform="rotate(-60 936.286 199.169)"/></g><defs><linearGradient id="paint0_linear" x1="-370.917" y1="-17.598" x2="-370.917" y2="1000.59" gradientUnits="userSpaceOnUse"><stop stop-color="#fff"/><stop offset="1" stop-color="#DFEFFF"/></linearGradient><linearGradient id="paint1_linear" x1="875.967" y1="244.679" x2="974.217" y2="301.403" gradientUnits="userSpaceOnUse"><stop stop-color="#5900D7"/><stop offset="1" stop-color="#34007D"/></linearGradient><linearGradient id="paint2_linear" x1="933.061" y1="145.788" x2="1031.31" y2="202.512" gradientUnits="userSpaceOnUse"><stop stop-color="#5900D7"/><stop offset="1" stop-color="#34007D"/></linearGradient><linearGradient id="paint3_linear" x1="1107.12" y1="247.995" x2="1039.09" y2="208.721" gradientUnits="userSpaceOnUse"><stop stop-color="#FF6D6D"/><stop offset="1" stop-color="#FFE04E"/></linearGradient><linearGradient id="paint4_linear" x1="1005.03" y1="240.399" x2="1019.72" y2="248.884" gradientUnits="userSpaceOnUse"><stop stop-color="#5900D7"/><stop offset="1" stop-color="#9482AD"/></linearGradient><linearGradient id="paint5_linear" x1="787.496" y1="144.047" x2="994.981" y2="263.839" gradientUnits="userSpaceOnUse"><stop stop-color="#0073D8"/><stop offset=".07" stop-color="#147DDF"/><stop offset=".19" stop-color="#2D8AE8"/><stop offset=".32" stop-color="#4194EF"/><stop offset=".48" stop-color="#4E9CF4"/><stop offset=".66" stop-color="#57A0F7"/><stop offset="1" stop-color="#59A1F8"/></linearGradient><linearGradient id="paint6_linear" x1="858.271" y1="110.37" x2="1012.41" y2="199.362" gradientUnits="userSpaceOnUse"><stop stop-color="#6CEFFC"/><stop offset="1" stop-color="#C7FFFE"/></linearGradient><linearGradient id="paint7_linear" x1="796.813" y1="127.909" x2="834.204" y2="149.497" gradientUnits="userSpaceOnUse"><stop stop-color="#5900D7"/><stop offset="1" stop-color="#34007D"/></linearGradient><linearGradient id="paint8_linear" x1="891.8" y1="178.472" x2="916.271" y2="136.088" gradientUnits="userSpaceOnUse"><stop stop-color="#5900D7"/><stop offset="1" stop-color="#34007D"/></linearGradient><linearGradient id="paint9_linear" x1="857.26" y1="151.892" x2="889.695" y2="170.618" gradientUnits="userSpaceOnUse"><stop stop-color="#D1D3D4"/><stop offset="1" stop-color="#fff"/></linearGradient><linearGradient id="paint10_linear" x1="815.601" y1="104.726" x2="845.212" y2="121.823" gradientUnits="userSpaceOnUse"><stop stop-color="#5900D7"/><stop offset="1" stop-color="#454DEF"/></linearGradient><linearGradient id="paint11_linear" x1="974.981" y1="130.822" x2="1039.98" y2="168.349" gradientUnits="userSpaceOnUse"><stop stop-color="#5900D7"/><stop offset="1" stop-color="#454DEF"/></linearGradient><linearGradient id="paint12_linear" x1="921.578" y1="263.838" x2="967.846" y2="290.551" gradientUnits="userSpaceOnUse"><stop stop-color="#5900D7"/><stop offset="1" stop-color="#454DEF"/></linearGradient></defs></svg>