<svg width="1396" height="600" viewBox="0 0 1396 600" fill="none" xmlns="http://www.w3.org/2000/svg" preserveAspectRatio="none"><g opacity=".168"><path fill-rule="evenodd" clip-rule="evenodd" d="M946.851 106.574c-46.22 65.319-58.381 148.817-32.711 224.606 33.8 99.9 128.93 171.22 240.06 169.82 66.31-.843 129.57-28 175.86-75.494A250.004 250.004 0 0 0 1401 247.76c-1.4-106.93-69.72-197.32-164.62-231.76a249.168 249.168 0 0 0-71.86-14.68C1159 1 1153.39.92 1147.78 1c-80.01 1.007-154.708 40.254-200.929 105.574zm388.959 175.717c-15.12 89.264-91.87 154.97-182.4 156.149-103.52 1.337-188.519-81.497-189.855-185.015-1.337-103.517 81.495-188.519 185.015-189.855 4.23-.03 8.41.04 12.56.25a187.19 187.19 0 0 1 53.77 10.92l.1.05c85.09 30.923 135.92 118.237 120.81 207.501z" fill="#90C0FC"/><path d="M1036.23 102.8l-38.32-49.47c-84.239 65.33-117.863 176.842-83.78 277.85l59.27-20.07c-25.542-75.732-.327-159.331 62.83-208.31z" fill="#169BF4"/><path d="M1236.38 16L1215 74.79l-.1-.05c-60.43-21.84-127.84-11.254-178.67 28.06l-38.32-49.47C1065.76.862 1155.74-13.224 1236.38 16z" fill="#4772B0"/><path d="M1350.71 401.38A248.834 248.834 0 0 0 1401 247.76c-1.4-106.93-69.72-197.32-164.62-231.76l-21.48 58.74.1.05a187.419 187.419 0 0 1 115.88 123.44c16.79 57.243 5.32 119.056-30.88 166.47l50.71 36.68z" fill="#70A5EE"/></g><g opacity=".168"><path fill-rule="evenodd" clip-rule="evenodd" d="M36.224 449.439C.27 500.122-9.188 564.91 10.779 623.717c26.292 77.515 100.288 132.854 186.731 131.767 51.581-.654 100.789-21.726 136.793-58.578 36.003-36.851 55.853-86.463 55.18-137.917-1.089-82.969-54.231-153.105-128.049-179.828a194.23 194.23 0 0 0-55.897-11.39c-4.293-.249-8.657-.311-13.021-.249-62.237.782-120.34 31.235-156.292 81.917zm302.549 136.344c-11.76 69.262-71.461 120.245-141.878 121.159-80.521 1.038-146.639-63.235-147.678-143.557-1.04-80.322 63.393-146.276 143.914-147.313 3.29-.023 6.541.031 9.769.194a145.926 145.926 0 0 1 41.825 8.473l.078.039c66.188 23.993 105.729 91.743 93.97 161.005z" fill="#90C0FC"/><path d="M105.5 446.958L75.752 408.5c-65.397 50.787-91.5 137.477-65.04 216l46.012-15.602c-19.828-58.874-.254-123.864 48.776-161.94z" fill="#169BF4"/><path d="M261 379.63l-16.586 45.63-.078-.039C197.453 408.27 145.16 416.486 105.728 447L76 408.604c52.636-40.723 122.444-51.656 185-28.974z" fill="#4772B0"/><path d="M349.802 679c26.015-34.279 39.803-76.223 39.178-119.187C387.889 476.85 334.665 406.721 260.734 380L244 425.574l.078.039c43.681 15.797 77.202 51.359 90.277 95.771 13.075 44.413 4.142 92.371-24.059 129.158L349.802 679z" fill="#70A5EE"/></g></svg>