<svg width="1440" height="672" fill="none" xmlns="http://www.w3.org/2000/svg"><path fill-rule="evenodd" clip-rule="evenodd" d="M0 100h1440v360H0V100z" fill="#169BF4"/><mask id="a" maskUnits="userSpaceOnUse" x="0" y="100" width="1440" height="360"><path fill-rule="evenodd" clip-rule="evenodd" d="M0 100h1440v360H0V100z" fill="#fff"/></mask><g opacity=".3" mask="url(#a)"><path fill-rule="evenodd" clip-rule="evenodd" d="M1294.65 330h-2.61v48.265H1283v246.771h9.04V643h2.61v-17.964H1306V378.265h-11.35V330zM491.683 74h-2.608v76.034H480v212.07h9.075V387h2.608v-24.896H503v-212.07h-11.317V74z" fill="#FEFEFE"/><mask id="b" maskUnits="userSpaceOnUse" x="517" y="-40" width="24" height="161"><path fill-rule="evenodd" clip-rule="evenodd" d="M517.48-39.911h22.819v160.397H517.48V-39.911z" fill="#fff"/></mask><g mask="url(#b)"><path fill-rule="evenodd" clip-rule="evenodd" d="M517.48-39.911V89.854h10.833v30.632h2.587V89.854h9.399V-39.91H517.48z" fill="#FEFEFE"/></g><path fill-rule="evenodd" clip-rule="evenodd" d="M613.771-31h-2.608V3.219H601v155.658h10.163V167h2.608v-8.123H624V3.219h-10.229V-31zm637.239 302h-2.6v31.011H1239v155.971h9.41V564h2.6V457.982H1262V302.011h-10.99V271zM451.356 120.176V95H451v150h.356v-60.214H463v-64.61h-11.644zM620.43 191h-2.608v16.723H608v113.788h9.822V341h2.608v-19.489H631V207.723h-10.57V191zm716.39 163h-2.61v54.01H1324v155.913h10.21V625h2.61v-61.077H1347V408.01h-10.18V354zm-126.17 2h-2.61v65.853H1198v161.221h10.04V627h2.61v-43.926H1221V421.853h-10.35V356zm170.06-33h-2.6v64.678H1369v106.516h9.11V549h2.6v-54.806H1392V387.678h-11.29V323zM662.551 217h-2.608v41.578H651v212.065h8.943V530h2.608v-59.357H674V258.578h-11.449V217zM532.85 227h-2.607v109.762H521v112.951h9.243V498h2.607v-48.287H544V336.762h-11.15V227zm46.46-17h-2.608v54.773H566v113.706h10.702V425h2.608v-46.521H589V264.773h-9.69V210zm125.664-68h-2.607v100.082H693v283.801h9.367V557h2.607v-31.117H716V242.082h-11.026V142zm45.638 23h-2.607v47.396H737v283.821h11.005V538h2.607v-41.783H760V212.396h-9.388V165zm40.209 2h-2.607v71.168H778v168.689h10.214V480h2.607v-73.143H801V238.168h-10.179V167zm38.693-67h-2.607v71.779H817v102.203h9.907V344h2.607v-70.018H840V171.779h-10.486V100zm75.045 53h-2.608v111.349H893V441.01h8.951V526h2.608v-84.99H916V264.349h-11.441V153zm-38.262 42h-2.607v24.918H854v102.355h9.69V329h2.607v-6.727H877V219.918h-10.703V195zm83.375-14h-2.607v9.722H937v118.487h10.065V354h2.607v-44.791H960V190.722h-10.328V181zm41.21 79h-2.608v29.398H979v118.703h9.274V432h2.608v-23.899H1002V289.398h-11.118V260zm38.738-17h-2.61v70.525H1016v118.583h11.01V485h2.61v-52.892h9.38V313.525h-9.38V243zm35.79-29h-2.61v41.136h-9.8v118.318h9.8V409h2.61v-35.546H1076V255.136h-10.59V214zm35.61-51h-2.61v23.791H1088v113.794h10.41V409h2.61V300.585h9.98V186.791h-9.98V163zm41.21-181h-2.61v62.493H1129v212.348h10.62V286h2.61v-29.159h9.77V44.493h-9.77V-18zm42.55 12h-2.61v34.907H1172V312.56h10.17V353h2.61v-40.439H1195V28.907h-10.22V-6zm41.37 8h-2.61v62.3H1214v106.558h9.54V227h2.61v-56.142H1237V64.3h-10.85V2z" fill="#FEFEFE"/><mask id="c" maskUnits="userSpaceOnUse" x="1256" y="-40" width="24" height="222"><path fill-rule="evenodd" clip-rule="evenodd" d="M1256.59-39.91h22.82v221.22h-22.82V-39.91z" fill="#fff"/></mask><g mask="url(#c)"><path fill-rule="evenodd" clip-rule="evenodd" d="M1256.59-39.91v193.983h10.32v27.237h2.59v-27.237h9.91V-39.911h-22.82z" fill="#FEFEFE"/></g></g><path fill-rule="evenodd" clip-rule="evenodd" d="M0 0h1440v538.843L0 672V0z" fill="url(#paint0_linear)"/><defs><linearGradient id="paint0_linear" x1="-370.917" y1="-17.598" x2="-370.917" y2="1000.59" gradientUnits="userSpaceOnUse"><stop stop-color="#fff"/><stop offset="1" stop-color="#DFEFFF"/></linearGradient></defs></svg>