<svg width="34" height="34" viewBox="0 0 34 34" fill="none" xmlns="http://www.w3.org/2000/svg" preserveAspectRatio="none"><path fill-rule="evenodd" clip-rule="evenodd" d="M29.128 15.604l.002.006c.184.812 1.02 4.223 1.02 4.223h-3.232v4.25a2.836 2.836 0 0 1-2.833 2.834h-1.417v4.25h-17v-17c0-6.25 5.084-11.334 11.333-11.334 9.203 0 10.69 6.493 12.127 12.771zm-10.71-5.687V7.083h-2.833v2.834h2.833zM8.932 12.56l1.417-2.454 2.453 1.417-1.416 2.454-2.454-1.417zm8.07 12.94c.783 0 1.416-.633 1.416-1.417v-1.416h-2.833v1.416c0 .784.633 1.417 1.416 1.417zm2.552-6.535a2.831 2.831 0 0 0-1.136 2.27v.015h-2.833v-.017c0-.893-.424-1.735-1.136-2.27a4.212 4.212 0 0 1-1.698-3.38 4.25 4.25 0 0 1 8.5 0c0 1.387-.668 2.61-1.697 3.382zm1.646-7.442l1.417 2.454 2.454-1.417-1.417-2.454-2.454 1.417z" fill="#169BF4"/></svg>