<svg width="34" height="34" viewBox="0 0 34 34" fill="none" xmlns="http://www.w3.org/2000/svg" preserveAspectRatio="none"><path d="M7.083 9.917A2.8 2.8 0 0 0 8.5 9.524l5.67 3.242a2.833 2.833 0 0 0 5.665-.016c0-.252-.045-.49-.105-.725l6.462-6.463c.233.062.474.105.726.105a2.833 2.833 0 1 0-2.833-2.833c0 .252.043.492.104.725l-6.463 6.462A2.91 2.91 0 0 0 17 9.918a2.8 2.8 0 0 0-1.415.393l-5.67-3.239a2.833 2.833 0 1 0-2.832 2.845zm-4.25 21.25h28.333V34H2.833zm11.333-9.917h5.667v8.5h-5.667zm8.5-8.5h5.667v17h-5.667zM5.667 18.417h5.667V29.75H5.667z" fill="#169BF4"/></svg>