<svg width="24" height="24" viewBox="0 0 24 24" fill="none" xmlns="http://www.w3.org/2000/svg" preserveAspectRatio="none"><path fill-rule="evenodd" clip-rule="evenodd" d="M20.419 3.187A1 1 0 0 1 22 4v15.999a1 1 0 0 1-1 1H3a1 1 0 0 1-1-1V3h2v6.825l5.35-4.584A.998.998 0 0 1 10.6 5.2l3.414 2.561 6.405-4.574zM13.4 9.799l-3.358-2.518L4 12.459v1.406l4.359-3.635a1.003 1.003 0 0 1 1.012-.16l4.615 1.846L20 9.339V5.943l-5.419 3.87a.998.998 0 0 1-1.181-.014zM4 16.467l5.182-4.318 4.447 1.778c.246.099.521.094.766-.009L20 11.516v3.637l-5 .833-5.836-.973a.997.997 0 0 0-.964.386l-2.7 3.6H4v-2.532zm5.436.618L8 18.999h12v-1.82l-4.836.807a1.003 1.003 0 0 1-.328 0l-5.4-.901z" fill="#169BF4"/></svg>