<svg xmlns="http://www.w3.org/2000/svg" width="254" height="34" viewBox="0 0 254 34" preserveAspectRatio="none"><defs><linearGradient id="a" x1="2.49" x2="26.62" y1="-1.01" y2="30.69" gradientUnits="userSpaceOnUse"><stop offset="0" stop-color="#0673d8"/><stop offset="1" stop-color="#18a1f8"/></linearGradient></defs><path fill="#2c3e50" d="M36 3.089V23.65h3.253v-8.968h8.023v-2.844h-8.023V5.933h9.107V2.87H36zm15.18 4.6v15.968h3.036V7.47H51.18zm-.33-3.939c0 2.406 3.513 2.406 3.513 0m18.692 10.774v-.188m-.022-.246v-.063m.043 1v-.362m-11.441-.382c0-.084 0-.168.023-.253m-.067.92c0-.175 0-.35.023-.526m4.832-7.004c-2.168 0-3.665.613-4.64 1.947V7.682H58.77v15.97h3.036v-8.707c0-2.91 1.734-4.769 4.423-4.769h.109c2.233.044 3.252.963 3.664 2.494v.022c.022.065.022.11.044.175.021.065.021.131.043.197.108.612.152 1.268.152 2.012v8.575h3.035v-8.619c.022-4.965-2.341-7.612-6.83-7.612zm18.931 13.696c-3.665.087-5.573-2.757-5.573-5.557 0-3.193 2.147-5.38 5.334-5.446h.065c2.667 0 5.508 1.925 5.508 5.512.022 3.522-2.667 5.447-5.334 5.49zm5.377-11.572C89.28 7.772 86.96 7.4 85.224 7.4c-5.528 0-8.434 4.112-8.434 8.16 0 4.003 2.645 8.312 8.457 8.312 1.864 0 4.228-.613 5.42-2.144v1.925h3.036V7.684h-2.949zm21.116 4.792v.188m-.022-.497v.063m.043.575v.362m-11.427-1.019c-.022.088-.022.197-.043.285m-.022.657c0-.175 0-.35.022-.526m4.835-7.004c-2.168 0-3.665.613-4.64 1.947V7.682H97.58v15.97h3.036v-8.707c0-2.91 1.734-4.769 4.423-4.769h.109c2.233.044 3.252.963 3.664 2.494v.022c.022.065.022.11.044.175.021.065.021.131.043.197.108.612.152 1.268.152 2.012v8.575h3.035v-8.619c.022-4.965-2.341-7.612-6.83-7.612zm18.545 2.694c2.299 0 4.185 1.422 4.814 3.61l.022.087h3.122l-.021-.131c-.824-4.353-4.597-6.3-7.98-6.3-3.946 0-8.218 2.581-8.218 8.247 0 5.622 4.207 8.181 8.131 8.181h.13c3.361-.022 7.113-2.012 7.915-6.344l.022-.13h-3.123l-.021.087c-.608 2.318-2.407 3.697-4.793 3.697-2.515 0-5.225-1.729-5.225-5.491.043-3.806 2.732-5.513 5.225-5.513zm19.449 11.262h-.022m-.698.022h.368a1.04 1.04 0 0 1-.368 0zm-1.84-11.025c.044 0 .066-.022.11-.022l.26-.065c.065-.022.13-.022.195-.044s.13-.022.195-.044c.087-.022.152-.022.239-.044.065 0 .152-.021.217-.021s.152-.022.217-.022c.151 0 .303-.022.455-.022.13 0 .26 0 .39.022h.087c.087 0 .174.022.26.022.066 0 .153.021.24.021.043 0 .064 0 .108.022 1.388.24 3.254 1.05 3.818 3.61h-9.914c.369-1.707 1.497-2.91 3.124-3.413zm1.888-2.953c-3.946 0-8.218 2.581-8.218 8.225 0 5.447 4.098 8.29 8.153 8.29 3.47 0 6.57-2.077 7.676-5.184l.043-.153h-3.122l-.022.066c-.845 1.597-2.493 2.515-4.553 2.515-2.407 0-5.074-1.947-5.14-4.768h13.184l.022-.088c.087-.481.108-.962.065-1.4-.347-5.14-4.423-7.503-8.088-7.503zm21.028 5.47l-6.57-9.756-.044-.044h-2.602v20.562h3.253V9.522l5.074 7.568h1.756l5.096-7.569v14.131h3.035V3.09h-2.407zm21.491 8.226c-3.642.087-5.571-2.757-5.571-5.557 0-3.193 2.146-5.38 5.332-5.446h.065c2.667 0 5.506 1.925 5.506 5.512.022 3.522-2.666 5.447-5.332 5.49zm5.377-11.572C189 7.772 186.68 7.4 184.945 7.4c-5.53 0-8.435 4.112-8.435 8.16 0 4.003 2.645 8.312 8.478 8.312 1.887 0 4.229-.613 5.421-2.144v1.925h3.036V7.684h-2.992zm9.692 5.137v-.083m.026-.304c0 .022 0 .066-.021.088m.06-.353c0 .02 0 .041-.021.062m4.45-6.731c-1.779 0-3.21.678-4.294 2.056V7.688h-3.036v15.969h3.036v-8.663c0-2.756 2.081-4.9 4.705-4.9.477 0 .954.066 1.431.22l.13.043V7.623l-.086-.022a7.313 7.313 0 0 0-1.887-.241zm18.189.324h-3.686l-4.402 4.681-2.255 2.647V3.09h-3.036v20.562h3.036v-4.9l1.951-2.034 5.204 6.89.022.045h3.448v-.46l-6.657-8.64zm10.017 13.714h.369c-.13.022-.26.022-.369 0zm-1.864-11.025c.043 0 .065-.022.108-.022l.26-.065c.065-.022.13-.022.195-.044s.13-.022.196-.044c.086-.022.151-.022.238-.044.065 0 .152-.021.217-.021s.152-.022.217-.022c.152 0 .303-.022.455-.022.13 0 .26 0 .39.022h.087c.087 0 .174.022.26.022.065 0 .152.021.239.021.043 0 .065 0 .108.022 1.388.24 3.253 1.05 3.817 3.61h-9.91c.369-1.707 1.496-2.91 3.123-3.413zm1.886-2.953c-3.946 0-8.218 2.581-8.218 8.225 0 5.447 4.098 8.29 8.153 8.29 3.47 0 6.57-2.077 7.676-5.184l.043-.153h-3.1l-.022.066c-.846 1.597-2.494 2.515-4.554 2.515-2.406 0-5.074-1.947-5.139-4.768h13.184l.022-.088c.086-.481.108-.962.065-1.4-.347-5.14-4.445-7.503-8.11-7.503zm14.328 7.261v-.083m.026-.304c0 .022 0 .066-.021.088m.06-.353c0 .02 0 .041-.021.062m6.357-6.512a7.662 7.662 0 0 0-1.821-.219c-1.8 0-3.318.7-4.38 2.056V7.688h-3.036v15.969h3.036v-8.663c0-2.756 2.081-4.9 4.705-4.9.477 0 .954.066 1.431.22l.13.043V7.623z"/><path fill="url(#a)" d="M0 .372v26.884c0 .153.087.285.217.328l13.4 6.322a.367.367 0 0 0 .304 0l13.4-6.322a.383.383 0 0 0 .217-.328V.372A.382.382 0 0 0 27.17 0H.369A.382.382 0 0 0 0 .372z"/><path fill="#fff" d="M23.505 8.977H4.185a.335.335 0 0 1-.325-.328V3.97c0-.176.152-.329.325-.329h19.32c.174 0 .326.153.326.328V8.65c-.022.197-.152.328-.326.328zm-6.093 7.3H4.185a.335.335 0 0 1-.325-.328v-4.68c0-.176.152-.329.325-.329h13.227c.174 0 .326.153.326.328v4.681a.32.32 0 0 1-.326.328zm-6.938 7.31H4.185a.335.335 0 0 1-.325-.328v-4.68c0-.176.152-.329.325-.329h6.31c.174 0 .325.153.325.328v4.681a.353.353 0 0 1-.346.328z"/></svg>