<svg width="255" height="35" fill="none" xmlns="http://www.w3.org/2000/svg"><path d="M36.429 4.094v20.562h3.251v-8.968h8.023v-2.844H39.68V6.938h9.108V3.874h-12.36v.219zm15.178 4.594v15.968h3.036V8.47h-3.036v.219zm-.325-3.938c0 2.406 3.513 2.406 3.513 0 0-2.187-3.513-1.969-3.513 0z" fill="#fff"/><path fill-rule="evenodd" clip-rule="evenodd" d="M62.232 10.372c.976-1.334 2.472-1.947 4.64-1.947 4.489 0 6.853 2.647 6.83 7.613v8.618h-3.035v-8.575c0-.743-.043-1.4-.152-2.012a.631.631 0 0 1-.021-.099.63.63 0 0 0-.022-.098 1.026 1.026 0 0 1-.022-.088c-.005-.027-.01-.054-.021-.087v-.022c-.412-1.531-1.432-2.45-3.665-2.494h-.108c-2.69 0-4.424 1.86-4.424 4.769v8.706h-3.036V8.688h3.036v1.684zM85.65 8.403c1.735 0 4.055.372 5.53 2.144v-1.86h2.949v15.97h-3.036V22.73c-1.193 1.532-3.556 2.144-5.42 2.144-5.812 0-8.457-4.31-8.457-8.312 0-4.047 2.905-8.16 8.434-8.16zm-5.42 8.16c0 2.8 1.908 5.643 5.572 5.556 2.667-.044 5.356-1.969 5.334-5.49 0-3.588-2.84-5.513-5.507-5.513h-.065c-3.188.065-5.334 2.253-5.334 5.447zm20.816-6.191c.976-1.334 2.472-1.947 4.64-1.947 4.489 0 6.852 2.647 6.831 7.613v8.618h-3.036v-8.575c0-.743-.043-1.4-.152-2.012-.011-.033-.016-.066-.022-.099a.575.575 0 0 0-.021-.098c-.011-.033-.016-.06-.022-.088a.605.605 0 0 0-.022-.087v-.022c-.412-1.531-1.431-2.45-3.664-2.494h-.109c-2.688 0-4.423 1.86-4.423 4.769v8.706H98.01V8.688h3.036v1.684zm-.152 4.637c-.011.044-.016.093-.022.143a1.025 1.025 0 0 1 .002 0c.005-.045.01-.091.02-.143z" fill="#fff"/><path d="M124.226 11.116c2.298 0 4.185 1.422 4.814 3.61l.021.087h3.123l-.022-.132c-.824-4.353-4.597-6.3-7.98-6.3-3.946 0-8.218 2.582-8.218 8.247 0 5.622 4.207 8.181 8.132 8.181h.13c3.361-.021 7.112-2.012 7.914-6.343l.022-.132h-3.122l-.022.088c-.607 2.319-2.407 3.697-4.792 3.697-2.515 0-5.226-1.728-5.226-5.49.043-3.807 2.732-5.513 5.226-5.513z" fill="#fff"/><path fill-rule="evenodd" clip-rule="evenodd" d="M134.786 16.65c0-5.644 4.271-8.225 8.218-8.225 3.664 0 7.741 2.362 8.088 7.503.043.438.022.919-.065 1.4l-.022.088h-13.184c.066 2.822 2.733 4.768 5.14 4.768 2.059 0 3.707-.918 4.553-2.515l.022-.066h3.122l-.043.153c-1.106 3.107-4.207 5.185-7.676 5.185-4.055 0-8.153-2.844-8.153-8.291zm6.386-5.283a.154.154 0 0 1-.055.011c-1.626.503-2.753 1.706-3.122 3.413h9.909c-.563-2.56-2.428-3.37-3.816-3.61-.043-.022-.065-.022-.108-.022a.983.983 0 0 1-.136-.012c-.038-.005-.073-.01-.103-.01-.043 0-.087-.005-.13-.01a1.036 1.036 0 0 0-.13-.011h-.087c-.13-.022-.26-.022-.39-.022-.076 0-.152.005-.228.01-.076.006-.152.012-.227.012a.804.804 0 0 0-.109.01.806.806 0 0 1-.108.011.805.805 0 0 0-.109.011.806.806 0 0 1-.108.011 1.128 1.128 0 0 1-.119.022c-.038.006-.076.011-.12.022a.565.565 0 0 1-.097.022.639.639 0 0 0-.098.022c-.032.01-.065.016-.097.022a.627.627 0 0 0-.098.022l-.26.065c-.022 0-.038.006-.054.011zm2.157 11.036h-.368c.13.022.26.022.368 0z" fill="#fff"/><path d="M164.037 13.894l-6.57-9.756-.044-.044h-2.602v20.562h3.253V10.525l5.074 7.569h1.756L170 10.525v14.131h3.036V4.094h-2.407l-6.592 9.8z" fill="#fff"/><path fill-rule="evenodd" clip-rule="evenodd" d="M185.374 8.403c1.734 0 4.055.372 5.529 2.144l-.022-1.86h2.993v15.97h-3.036V22.73c-1.193 1.532-3.534 2.144-5.421 2.144-5.833 0-8.478-4.31-8.478-8.312 0-4.047 2.905-8.16 8.435-8.16zm-5.421 8.16c0 2.8 1.93 5.643 5.573 5.556 2.667-.044 5.355-1.969 5.334-5.49 0-3.588-2.841-5.513-5.508-5.513h-.065c-3.187.065-5.334 2.253-5.334 5.447zm20.838-6.147c1.084-1.379 2.515-2.057 4.293-2.057.586 0 1.236.066 1.887.241l.086.022v2.734l-.13-.043a4.643 4.643 0 0 0-1.431-.22c-2.624 0-4.705 2.145-4.705 4.9v8.663h-3.036V8.687h3.036v1.729zm-.141 4.648a.07.07 0 0 0-.011.033c.022-.022.022-.044.022-.066 0 .011-.006.022-.011.033zm-.033.23c0 .022 0 .065-.021.087.021-.022.021-.043.021-.087zm-.021.393V15.6c0 .007-.002.015-.004.025-.005.021-.011.047.004.063z" fill="#fff"/><path d="M223.277 8.688h-3.686l-4.402 4.68-2.255 2.648V4.094h-3.036v20.562h3.036v-4.9l1.951-2.034 5.204 6.89.022.044h3.448v-.46l-6.657-8.64 6.375-6.868z" fill="#fff"/><path fill-rule="evenodd" clip-rule="evenodd" d="M233.316 8.425c-3.946 0-8.218 2.581-8.218 8.225 0 5.447 4.098 8.29 8.153 8.29 3.47 0 6.57-2.078 7.676-5.184l.044-.153h-3.101l-.022.066c-.845 1.597-2.493 2.515-4.553 2.515-2.407 0-5.074-1.947-5.139-4.768h13.183l.022-.088c.087-.481.108-.962.065-1.4-.347-5.14-4.445-7.503-8.11-7.503zm-1.886 2.953a.168.168 0 0 0 .054-.01.162.162 0 0 1 .054-.012l.261-.065a.565.565 0 0 1 .097-.022.627.627 0 0 0 .098-.022.565.565 0 0 1 .097-.022.627.627 0 0 0 .098-.022c.043-.01.081-.016.119-.022a.817.817 0 0 0 .119-.022.804.804 0 0 0 .109-.01.732.732 0 0 1 .108-.011.804.804 0 0 0 .109-.011.72.72 0 0 1 .108-.011c.076 0 .152-.006.228-.011.076-.006.151-.011.227-.011.13 0 .261 0 .391.022h.086c.044 0 .087.005.131.01a.937.937 0 0 0 .13.011c.03 0 .065.005.102.01.043.006.09.012.136.012.044 0 .065 0 .109.022 1.387.24 3.252 1.05 3.816 3.61h-9.91c.369-1.707 1.497-2.91 3.123-3.413zm2.233 11.025h-.368c.108.022.238.022.368 0zM252.225 8.36c.585 0 1.192.065 1.821.218l.065.044v2.734l-.13-.043a4.643 4.643 0 0 0-1.431-.22c-2.624 0-4.706 2.145-4.706 4.9v8.663h-3.035V8.687h3.035v1.729c1.063-1.357 2.581-2.057 4.381-2.057zm-4.522 6.704a.082.082 0 0 0-.01.033c.021-.022.021-.044.021-.066a.071.071 0 0 1-.011.033zm-.032.23c0 .022 0 .065-.022.087.022-.022.022-.043.022-.087zm-.022.393V15.6c0 .007-.002.015-.004.025-.005.021-.011.047.004.063z" fill="#fff"/><path d="M.065 1.247V28.13c0 .153.087.285.217.328l13.4 6.322a.366.366 0 0 0 .304 0l13.4-6.322a.383.383 0 0 0 .217-.328V1.247a.382.382 0 0 0-.368-.372H.434a.382.382 0 0 0-.369.372z" fill="#fff"/><path d="M23.505 9.975H4.185a.335.335 0 0 1-.325-.328V4.966c0-.175.152-.329.325-.329h19.32c.174 0 .325.154.325.329v4.68c-.021.198-.151.329-.325.329z" fill="url(#paint0_linear)"/><path d="M17.412 17.281H4.185a.335.335 0 0 1-.325-.328v-4.681c0-.175.152-.328.325-.328h13.227c.174 0 .325.153.325.328v4.681a.32.32 0 0 1-.325.328z" fill="url(#paint1_linear)"/><path d="M10.473 24.587H4.185a.335.335 0 0 1-.325-.328v-4.68c0-.176.152-.329.325-.329h6.31c.173 0 .325.153.325.328v4.681a.353.353 0 0 1-.347.328z" fill="url(#paint2_linear)"/><defs><linearGradient id="paint0_linear" x1="-3.663" y1="6.818" x2="-1.451" y2="15.637" gradientUnits="userSpaceOnUse"><stop stop-color="#0673D8"/><stop offset="1" stop-color="#18A1F8"/></linearGradient><linearGradient id="paint1_linear" x1="-1.368" y1="14.124" x2="1.625" y2="22.418" gradientUnits="userSpaceOnUse"><stop stop-color="#0673D8"/><stop offset="1" stop-color="#18A1F8"/></linearGradient><linearGradient id="paint2_linear" x1="1.238" y1="21.43" x2="5.682" y2="27.607" gradientUnits="userSpaceOnUse"><stop stop-color="#0673D8"/><stop offset="1" stop-color="#18A1F8"/></linearGradient></defs></svg>