<svg width="24" height="24" viewBox="0 0 24 24" fill="none" xmlns="http://www.w3.org/2000/svg" preserveAspectRatio="none"><path fill-rule="evenodd" clip-rule="evenodd" d="M16.314 14.9l5.393 5.393-1.414 1.413-5.393-5.392A7.922 7.922 0 0 1 10 18a7.94 7.94 0 0 1-5.656-2.344A7.945 7.945 0 0 1 2 10c0-2.137.833-4.146 2.344-5.656A7.94 7.94 0 0 1 10 2a7.94 7.94 0 0 1 5.656 2.344A7.945 7.945 0 0 1 18 10a7.928 7.928 0 0 1-1.686 4.9zm-10.556-.657A5.959 5.959 0 0 0 10 16a5.959 5.959 0 0 0 4.242-1.757A5.958 5.958 0 0 0 16 10a5.957 5.957 0 0 0-1.758-4.242A5.956 5.956 0 0 0 10 4a5.956 5.956 0 0 0-4.242 1.758A5.957 5.957 0 0 0 4 10c0 1.603.624 3.11 1.758 4.243z" fill="#169BF4"/></svg>