<svg width="1110" height="221" viewBox="0 0 1110 221" fill="none" xmlns="http://www.w3.org/2000/svg" preserveAspectRatio="none"><path d="M1109.97 221l.03-33c-9.14-18.384-24.36-24.324-45.65-17.818.03-.411.05-.819.06-1.225 1.03-30.638-39.42-48.407-61.85-26.722-2-61.366-91.668-71.225-106.763-11.282-20.969-28.686-29.702-66.063-35.622-100.44-3.678-21.47 2.969-30.036-18.984-30.5-22.789-.475-15.95 12.823-19.765 33.993-5.984 33.237-14.708 69.192-34.997 96.947-15.095-59.943-104.8-50.084-106.767 11.282-22.725-21.972-63.955-3.438-61.786 27.947-17.512-33.401-66.694-31.103-79.206 4.797-12.631-49.052-79.179-44.865-89.842 0-12.503-35.9-61.667-23.477-79.216 9.97 2.179-31.386-39.061-49.928-61.786-27.956-1.995-61.402-91.663-71.298-106.721-11.328l-2.61-3.238c-27.524-34.149-80.255-32.963-106.16 2.417-.19.273-.393.547-.607.821C42.238 135.857 11.662 149.968 0 188v33h1109.97z" fill="#169BF4"/></svg>