<svg width="20" height="24" viewBox="0 0 20 24" fill="none" xmlns="http://www.w3.org/2000/svg" preserveAspectRatio="none"><path d="M0 .263V19.24c0 .108.063.2.157.231l9.674 4.463a.27.27 0 0 0 .219 0l9.674-4.463a.27.27 0 0 0 .157-.231V.263A.273.273 0 0 0 19.614 0H.266A.272.272 0 0 0 0 .263z" fill="url(#paint0_linear)"/><path d="M7.514 16.738h-4.54a.24.24 0 0 1-.235-.231v-3.305a.24.24 0 0 1 .235-.231H7.53a.24.24 0 0 1 .234.231v3.305a.253.253 0 0 1-.25.231z" fill="#fff"/><defs><linearGradient id="paint0_linear" x1="-7.488" y1="9.786" x2="13.391" y2="28.254" gradientUnits="userSpaceOnUse"><stop stop-color="#0673D8"/><stop offset="1" stop-color="#18A1F8"/></linearGradient></defs></svg>