<svg width="20" height="24" viewBox="0 0 20 24" fill="none" xmlns="http://www.w3.org/2000/svg" preserveAspectRatio="none"><path d="M0 .263V19.24c0 .108.062.2.155.231l9.572 4.463c.077.03.155.03.217 0l9.571-4.463a.27.27 0 0 0 .155-.231V.263A.271.271 0 0 0 19.407 0H.263A.271.271 0 0 0 0 .263z" fill="url(#paint0_linear)"/><path d="M12.39 11.58H2.944a.238.238 0 0 1-.233-.23V8.044c0-.124.109-.232.233-.232h9.448c.124 0 .232.108.232.232v3.304a.228.228 0 0 1-.232.232zm-4.956 5.158H2.943a.238.238 0 0 1-.233-.231v-3.305c0-.123.109-.231.233-.231H7.45c.124 0 .232.108.232.231v3.305a.251.251 0 0 1-.248.231z" fill="#fff"/><defs><linearGradient id="paint0_linear" x1="-7.409" y1="9.786" x2="13.442" y2="28.034" gradientUnits="userSpaceOnUse"><stop stop-color="#0673D8"/><stop offset="1" stop-color="#18A1F8"/></linearGradient></defs></svg>