<svg width="24" height="24" viewBox="0 0 24 24" fill="none" xmlns="http://www.w3.org/2000/svg" preserveAspectRatio="none"><path fill-rule="evenodd" clip-rule="evenodd" d="M2 12c0 5.515 4.486 10 10 10s10-4.485 10-10c0-5.514-4.486-10-10-10S2 6.487 2 12zm2 0c0-4.411 3.589-8 8-8s8 3.589 8 8-3.589 8-8 8-8-3.589-8-8z" fill="#169BF4"/><path d="M13 15h-2v-3h1a2 2 0 1 0-2-2H8c0-2.205 1.795-4 4-4s4 1.795 4 4a4.011 4.011 0 0 1-3 3.875V15zm-1 3.25a1.25 1.25 0 1 0 0-2.5 1.25 1.25 0 0 0 0 2.5z" fill="#169BF4"/></svg>