<svg width="380" height="380" viewBox="0 0 380 380" fill="none" xmlns="http://www.w3.org/2000/svg" preserveAspectRatio="none"><g opacity=".168"><path fill-rule="evenodd" clip-rule="evenodd" d="M80.25 345.103a189.998 189.998 0 0 0 170.684 24.856c75.917-25.683 130.115-97.968 129.051-182.411a189.955 189.955 0 0 0-57.37-133.628A189.991 189.991 0 0 0 187.541.016C106.282 1.08 37.593 52.993 11.421 125.103A189.334 189.334 0 0 0 .265 179.706c-.243 4.195-.304 8.458-.243 12.72A189.959 189.959 0 0 0 80.25 345.103zm133.532-295.55c67.834 11.488 117.766 69.808 118.662 138.595 1.015 78.659-61.932 143.247-140.598 144.262-78.665 1.016-143.26-61.926-144.275-140.584-.023-3.214.03-6.39.19-9.544a142.216 142.216 0 0 1 8.298-40.857l.038-.076c23.499-64.656 89.851-103.283 157.685-91.795z" fill="#90C0FC"/><path d="M77.568 276L40 305.182c49.612 64.15 134.294 89.756 211 63.801l-15.241-45.136c-57.511 19.451-120.997.249-158.191-47.847z" fill="#169BF4"/><path d="M12.336 125l44.474 16.228-.037.075C40.25 187.173 48.259 238.335 78 276.915L40.576 306C.884 254.503-9.772 186.204 12.336 125z" fill="#4772B0"/><path d="M304 38.117A188.53 188.53 0 0 0 187.603.02C106.583 1.08 38.095 52.836 12 124.728L56.507 141l.038-.076a142.004 142.004 0 0 1 93.529-87.787 142.037 142.037 0 0 1 126.134 23.395L304 38.117z" fill="#70A5EE"/></g></svg>