<svg width="62" height="62" viewBox="0 0 62 62" xmlns="http://www.w3.org/2000/svg" xmlns:xlink="http://www.w3.org/1999/xlink" preserveAspectRatio="none"><defs><path id="a" d="M0 0h94v64H0z"/><linearGradient x1="49.999%" y1="0%" x2="49.999%" y2="100.001%" id="c"><stop stop-color="#5900D7" offset="0%"/><stop stop-color="#34007D" offset="100%"/></linearGradient><linearGradient x1="49.977%" y1="0%" x2="49.977%" y2="100.001%" id="d"><stop stop-color="#5900D7" offset="0%"/><stop stop-color="#34007D" offset="100%"/></linearGradient><linearGradient x1="50%" y1="99.993%" x2="50%" y2="0%" id="e"><stop stop-color="#FF6D6D" offset="0%"/><stop stop-color="#FFE04E" offset="100%"/></linearGradient><linearGradient x1="49.972%" y1="0%" x2="49.972%" y2="100%" id="f"><stop stop-color="#5900D7" offset="0%"/><stop stop-color="#9482AD" offset="100%"/></linearGradient><linearGradient x1="49.999%" y1="0%" x2="49.999%" y2="100%" id="g"><stop stop-color="#0073D8" offset="0%"/><stop stop-color="#147DDF" offset="7%"/><stop stop-color="#2D8AE8" offset="19%"/><stop stop-color="#4194EF" offset="32%"/><stop stop-color="#4E9CF4" offset="48%"/><stop stop-color="#57A0F7" offset="66%"/><stop stop-color="#59A1F8" offset="100%"/></linearGradient><linearGradient x1="50.006%" y1="0%" x2="50.006%" y2="99.991%" id="h"><stop stop-color="#6CEFFC" offset="0%"/><stop stop-color="#C7FFFE" offset="100%"/></linearGradient><linearGradient x1="49.99%" y1="0%" x2="49.99%" y2="100%" id="i"><stop stop-color="#5900D7" offset="0%"/><stop stop-color="#34007D" offset="100%"/></linearGradient><linearGradient x1="0%" y1="50%" x2="100%" y2="50%" id="j"><stop stop-color="#5900D7" offset="0%"/><stop stop-color="#34007D" offset="100%"/></linearGradient><linearGradient x1="50%" y1="0%" x2="50%" y2="100%" id="k"><stop stop-color="#D1D3D4" offset="0%"/><stop stop-color="#FFF" offset="100%"/></linearGradient><linearGradient x1="49.999%" y1="-.005%" x2="49.999%" y2="99.992%" id="l"><stop stop-color="#5900D7" offset="0%"/><stop stop-color="#454DEF" offset="100%"/></linearGradient><linearGradient x1="49.996%" y1="0%" x2="49.996%" y2="99.999%" id="m"><stop stop-color="#5900D7" offset="0%"/><stop stop-color="#454DEF" offset="100%"/></linearGradient><linearGradient x1="50.001%" y1="0%" x2="50.001%" y2="99.999%" id="n"><stop stop-color="#5900D7" offset="0%"/><stop stop-color="#454DEF" offset="100%"/></linearGradient></defs><g transform="translate(-16 -1)" fill="none" fill-rule="evenodd"><mask id="b" fill="#fff"><use xlink:href="#a"/></mask><g mask="url(#b)" fill="#9CF7FD" fill-rule="nonzero"><path d="M54.71 30.585l-6.588-6.587c-.059-.06-.056-.166.007-.228l1.672-1.673c.063-.062.169-.065.228-.006l6.588 6.587c.059.06.056.166-.007.229l-1.672 1.672c-.078.063-.169.065-.228.006zm-4.615.391L45.619 26.5c-.059-.06-.055-.165.007-.228l1.672-1.672c.063-.063.169-.066.228-.007l4.476 4.476c.058.058.055.165-.008.227l-1.672 1.672c-.07.07-.168.066-.227.008zm-4.858.147l-2.121-2.121c-.059-.059-.055-.165.007-.227l1.673-1.672c.062-.063.168-.066.227-.008l2.128 2.129c.059.058.055.164-.007.227l-1.673 1.672c-.077.063-.175.059-.234 0z"/></g><g fill-rule="nonzero" mask="url(#b)"><g transform="rotate(45 48.372 65.576)"><path d="M14.04.038S6.152 3.676 2.281 16.108C-1.589 28.539.005 32.178 4.102 27.78 8.2 23.384 14.116 19.9 17.075 19.9L14.04.038z" fill="url(#c)" transform="translate(0 33.005)"/><path d="M32.864.038s7.888 3.638 11.762 16.07c3.874 12.431 2.276 16.07-1.82 11.673C38.709 23.384 32.79 19.9 29.832 19.9L32.864.038z" fill="url(#d)" transform="translate(0 33.005)"/><path d="M26.755 65.138s2.686 3.012 2.686 8.656-2.77 8.485-3.195 8.485c-.425 0-.934-.679-.934-.679s-1.02 3.988-2.08 3.988c-1.062 0-2.466-5.349-2.761-5.6-.295-.251-.423.467-1.231.552-.809.085-1.777-3.183-1.777-6.958v-.026c.031-5.579 2.686-8.416 2.686-8.416l6.606-.002z" fill="url(#e)"/><path d="M25.14 65.57s1.704 3.695 1.704 7.6c0 3.904-.91 4.84-1.322 4.84-.41 0-.88-1.055-.88-1.055s-.44 1.965-1.204 1.965-1.38-2.405-1.527-3.021c0 0-.235.499-.734.499-.5 0-1.116-2.426-1.116-4.91 0-2.483 1.791-6.347 1.791-6.347l3.289.428z" fill="#FFE04E"/><path d="M23.455 61.582h5.6s-.145 2.181-.774 3.107c-.63.925-3.24 1.31-4.826 1.31-1.587 0-4.193-.388-4.824-1.31-.632-.922-.775-3.107-.775-3.107h5.599z" fill="url(#f)"/><path d="M12.739 20.442C14.942 9.645 21.299 0 23.455 0c2.156 0 8.452 9.645 10.652 20.442 2.2 10.798 1.96 26.883-.775 34.28-2.345 6.347-3.614 7.646-6.023 7.646h-7.775c-2.409 0-3.677-1.299-6.023-7.647-2.735-7.393-2.975-23.481-.772-34.279z" fill="url(#g)"/><path d="M28.076 12.018l2.155-.446s3.744 10.79 3.744 20.203-3.513 23.96-4.145 25.931c-.633 1.97 1.741-10.726 1.741-25.405 0-14.678-3.495-20.283-3.495-20.283z" fill="url(#h)"/><path d="M23.421 11.24c-3.639 0-5.95-.574-7.31-1.106C18.79 4.188 22.033 0 23.455 0c1.42 0 4.634 4.186 7.294 10.128-1.361.534-3.674 1.111-7.328 1.111z" fill="url(#i)"/><ellipse fill="url(#j)" cx="23.452" cy="21.624" rx="6.377" ry="6.372"/><ellipse fill="url(#k)" cx="23.452" cy="21.624" rx="4.879" ry="4.875"/><path d="M23.857 1.253c-.563.275 2.556 3.992 3.531 8.867a11.996 11.996 0 0 0 2.224-.471S25.196.596 23.857 1.253z" fill="url(#l)"/><path d="M38.668 40.546s3.06 3.895 4.679 9.468c1.619 5.574 2.699 10.008 1.559 10.068-1.14.06-1.98-1.498-1.98-1.498s-1.132-11.319-4.258-18.038z" fill="url(#m)"/><path d="M4.9 45.82s-2.882 7.214-3.18 11.985c-.297 4.77 1.59-.839 1.59-.839s.497-6.297 1.59-11.146z" fill="url(#n)"/></g><path d="M50.209 20.93l7.744 7.745-2.06 2.06-7.744-7.745zm-2.829 2.829l5.384 5.383-2.06 2.06-5.383-5.383zm-2.827 2.827l2.692 2.691-2.06 2.06-2.691-2.691z" opacity=".5" fill="#FFF"/></g></g></svg>