<svg width="540" height="704" viewBox="0 0 540 704" fill="none" xmlns="http://www.w3.org/2000/svg" preserveAspectRatio="none"><path d="M225.596 209.113s-49.778 23.025-74.2 101.697c-24.423 78.673-14.365 101.702 11.488 73.876 25.854-27.826 63.192-49.88 81.863-49.88l-19.151-125.693z" fill="url(#paint0_linear)"/><path d="M344.374 209.113s49.777 23.025 74.222 101.697c24.444 78.673 14.36 101.702-11.489 73.876-25.849-27.826-63.196-49.88-81.862-49.88l19.129-125.693z" fill="url(#paint1_linear)"/><path d="M305.827 412.227s16.951 19.062 16.951 54.779c0 35.718-17.485 53.693-20.165 53.693-2.68 0-5.893-4.294-5.893-4.294s-6.431 25.234-13.129 25.234c-6.698 0-15.555-33.847-17.418-35.437-1.862-1.59-2.666 2.953-7.769 3.492-5.102.539-11.208-20.139-11.208-44.033v-.165c.195-35.303 16.946-53.26 16.946-53.26l41.685-.009z" fill="url(#paint2_linear)"/><path d="M295.64 414.953s10.747 23.39 10.747 48.098c0 24.709-5.747 30.637-8.338 30.637-2.591 0-5.56-6.681-5.56-6.681s-2.778 12.439-7.596 12.439c-4.817 0-8.706-15.222-9.635-19.124 0 0-1.48 3.158-4.631 3.158-3.151 0-7.04-15.351-7.04-31.068s11.302-40.167 11.302-40.167l20.751 2.708z" fill="#FFE04E"/><path d="M285 389.719h35.342s-.92 13.806-4.889 19.663c-3.969 5.856-20.444 8.292-30.453 8.292s-26.458-2.458-30.44-8.292c-3.982-5.835-4.889-19.663-4.889-19.663H285z" fill="url(#paint3_linear)"/><path d="M217.382 129.367C231.285 61.037 271.396 0 285 0c13.605 0 53.333 61.036 67.218 129.367 13.884 68.332 12.364 170.127-4.889 216.934-14.8 40.176-22.804 48.393-38.004 48.393h-49.063c-15.2 0-23.204-8.217-38.004-48.393-17.258-46.789-18.778-148.602-4.876-216.934z" fill="url(#paint4_linear)"/><path d="M314.16 76.054l13.6-2.82s23.622 68.287 23.622 127.854c0 59.566-22.164 151.635-26.155 164.105-3.992 12.47 10.991-67.881 10.991-160.774S314.16 76.054 314.16 76.054z" fill="url(#paint5_linear)"/><path d="M284.791 71.128c-22.964 0-37.547-3.63-46.129-6.996C255.56 26.503 276.031 0 285 0c8.969 0 29.244 26.49 46.027 64.096-8.587 3.376-23.183 7.032-46.236 7.032z" fill="url(#paint6_linear)"/><path d="M284.987 177.168c22.224 0 40.24-18.054 40.24-40.323 0-22.27-18.016-40.323-40.24-40.323-22.224 0-40.24 18.053-40.24 40.323 0 22.269 18.016 40.323 40.24 40.323z" fill="url(#paint7_linear)"/><path d="M284.987 167.695c17.003 0 30.786-13.812 30.786-30.85 0-17.038-13.783-30.85-30.786-30.85s-30.787 13.812-30.787 30.85c0 17.038 13.784 30.85 30.787 30.85z" fill="url(#paint8_linear)"/><path d="M287.542 7.927c-3.555 1.742 16.125 25.265 22.28 56.115a75.492 75.492 0 0 0 14.031-2.98s-27.866-57.29-36.311-53.135z" fill="url(#paint9_linear)"/><path d="M381 256.593s19.302 24.65 29.52 59.923c10.218 35.272 17.031 63.334 9.84 63.712-7.191.379-12.489-9.481-12.489-9.481S400.724 299.116 381 256.593z" fill="url(#paint10_linear)"/><path d="M167.916 289.968s-18.183 45.658-20.058 75.849c-1.876 30.19 10.031-5.309 10.031-5.309s3.133-39.851 10.027-70.54z" fill="url(#paint11_linear)"/><g opacity=".5" fill="#fff"><rect x="251.188" y="206.271" width="69.592" height="18.247" rx="2.46"/><rect x="251.188" y="231.321" width="48.372" height="18.247" rx="2.46"/><rect x="251.188" y="256.365" width="24.186" height="18.247" rx="2.46"/></g><defs><linearGradient id="paint0_linear" x1="137.441" y1="209.113" x2="137.441" y2="396.012" gradientUnits="userSpaceOnUse"><stop stop-color="#5900D7"/><stop offset="1" stop-color="#34007D"/></linearGradient><linearGradient id="paint1_linear" x1="325.219" y1="209.113" x2="325.219" y2="396.012" gradientUnits="userSpaceOnUse"><stop stop-color="#5900D7"/><stop offset="1" stop-color="#34007D"/></linearGradient><linearGradient id="paint2_linear" x1="322.775" y1="541.63" x2="322.775" y2="412.227" gradientUnits="userSpaceOnUse"><stop stop-color="#FF6D6D"/><stop offset="1" stop-color="#FFE04E"/></linearGradient><linearGradient id="paint3_linear" x1="249.651" y1="389.719" x2="249.651" y2="417.674" gradientUnits="userSpaceOnUse"><stop stop-color="#5900D7"/><stop offset="1" stop-color="#9482AD"/></linearGradient><linearGradient id="paint4_linear" x1="208.01" y1="0" x2="208.01" y2="394.694" gradientUnits="userSpaceOnUse"><stop stop-color="#0073D8"/><stop offset=".07" stop-color="#147DDF"/><stop offset=".19" stop-color="#2D8AE8"/><stop offset=".32" stop-color="#4194EF"/><stop offset=".48" stop-color="#4E9CF4"/><stop offset=".66" stop-color="#57A0F7"/><stop offset="1" stop-color="#59A1F8"/></linearGradient><linearGradient id="paint5_linear" x1="314.164" y1="73.235" x2="314.164" y2="366.449" gradientUnits="userSpaceOnUse"><stop stop-color="#6CEFFC"/><stop offset="1" stop-color="#C7FFFE"/></linearGradient><linearGradient id="paint6_linear" x1="238.653" y1="0" x2="238.653" y2="71.128" gradientUnits="userSpaceOnUse"><stop stop-color="#5900D7"/><stop offset="1" stop-color="#34007D"/></linearGradient><linearGradient id="paint7_linear" x1="244.747" y1="177.168" x2="325.227" y2="177.168" gradientUnits="userSpaceOnUse"><stop stop-color="#5900D7"/><stop offset="1" stop-color="#34007D"/></linearGradient><linearGradient id="paint8_linear" x1="254.2" y1="105.995" x2="254.2" y2="167.695" gradientUnits="userSpaceOnUse"><stop stop-color="#D1D3D4"/><stop offset="1" stop-color="#fff"/></linearGradient><linearGradient id="paint9_linear" x1="287.116" y1="7.709" x2="287.116" y2="64.038" gradientUnits="userSpaceOnUse"><stop stop-color="#5900D7"/><stop offset="1" stop-color="#454DEF"/></linearGradient><linearGradient id="paint10_linear" x1="380.998" y1="256.593" x2="380.998" y2="380.237" gradientUnits="userSpaceOnUse"><stop stop-color="#5900D7"/><stop offset="1" stop-color="#454DEF"/></linearGradient><linearGradient id="paint11_linear" x1="147.658" y1="289.968" x2="147.658" y2="377.984" gradientUnits="userSpaceOnUse"><stop stop-color="#5900D7"/><stop offset="1" stop-color="#454DEF"/></linearGradient></defs></svg>