<svg width="540" height="642" fill="none" xmlns="http://www.w3.org/2000/svg"><path d="M246.352 325.512s-55.751 25.57-83.298 113.365c-27.546 87.795-16.396 113.553 12.529 82.558 28.924-30.994 70.831-55.514 91.707-55.451l-20.938-140.472z" fill="url(#paint0_linear)"/><path d="M379.152 325.919s55.594 25.884 82.64 113.852c27.045 87.967 15.66 113.647-13.092 82.48-28.753-31.167-70.472-55.938-91.363-56.001l21.815-140.331z" fill="url(#paint1_linear)"/><path d="M364.353 108.737c-9.6 3.731-25.934 7.839-51.68 7.698-25.056 0-41.139-3.983-50.818-7.683a350.688 350.688 0 0 0-23.882 72.51c-15.77 76.287-14.391 190.029 4.699 242.361 16.412 44.916 25.338 54.119 42.283 54.182l27.64.078 27.218.078c16.991 0 25.965-9.108 42.659-53.931 19.481-52.222 19.027-165.525 6.264-242.345-6.64-39.492-24.383-72.948-24.383-72.948z" fill="url(#paint2_linear)"/><path d="M312.157 472.317l39.526.126s-1.08 15.442-5.543 21.948c-4.464 6.507-22.864 9.188-34.062 9.156-11.197-.031-29.582-2.837-34.014-9.406-4.432-6.569-5.418-21.949-5.418-21.949l39.511.125z" fill="url(#paint3_linear)"/><path opacity=".5" d="M345.811 122.11l15.206-3.136s26.2 76.351 26.012 142.902c-.188 66.552-25.292 169.319-29.755 183.209-4.463 13.891 12.528-75.801 12.81-179.54.282-103.739-24.273-143.435-24.273-143.435z" fill="#fff"/><path d="M312.987 234.879c24.848 0 44.992-20.166 44.992-45.042s-20.144-45.042-44.992-45.042c-24.849 0-44.993 20.166-44.993 45.042s20.144 45.042 44.993 45.042z" fill="url(#paint4_linear)"/><path d="M312.987 224.297c19.01 0 34.421-15.428 34.421-34.46 0-19.031-15.411-34.459-34.421-34.459-19.011 0-34.422 15.428-34.422 34.459 0 19.032 15.411 34.46 34.422 34.46z" fill="url(#paint5_linear)"/><path d="M419.947 379.067a217.772 217.772 0 0 1 32.809 67.037c11.322 39.43 18.792 70.801 10.805 71.193-7.987.391-13.938-10.63-13.938-10.63s-7.751-80.034-29.676-127.6z" fill="url(#paint6_linear)"/><path d="M181.596 415.643s-20.484 50.952-22.692 84.659c-2.208 33.707 11.244-5.911 11.244-5.911s3.634-44.508 11.448-78.748z" fill="url(#paint7_linear)"/><g opacity=".5" fill="#fff"><rect x="278.409" y="272.725" width="68.107" height="18.014" rx=".69"/><rect x="278.409" y="297.449" width="47.326" height="18.014" rx=".69"/><rect x="278.409" y="322.188" width="23.663" height="18.014" rx=".69"/></g><path opacity=".4" d="M418.157 544.895a183.394 183.394 0 0 1-42.791-6.678 172.201 172.201 0 0 0-60.538-6.852c-22.894 1.803-43.198 5.911-56.693 10.975a74.47 74.47 0 0 1-27.382 4.453 519.239 519.239 0 0 0-54.057 1.567c-61.197 4.813-102.607 7.087-101.68 18.736.925 11.648 43.731 28.22 104.991 23.516a629.787 629.787 0 0 0 21.231-2.053 142.39 142.39 0 0 1 49.914 2.759c27.397 6.867 76.998 15.897 132.562 11.539 84.467-6.632 137.504-15.992 136.265-31.717-.832-10.817-60.758-24.426-101.822-26.245z" fill="#8ACDF9"/><path d="M244 579l-49-283m55 0l62 283" stroke="#0091C8" stroke-width="2.52" stroke-linecap="round"/><path d="M199 317h56m-62 30h67m-61 29h67m-60 30h67m-60 29h67m-61 29h67m-57 30h64m-61 29h67m-60 30h67" stroke="#0091C8" stroke-width="2.52"/><path d="M201 579l49-283m-55 0l-62 283" stroke="#41B4E6" stroke-width="2.52" stroke-linecap="round"/><path d="M246 317h-54m48 30h-56m51 29h-57m52 30h-59m55 29h-61m55 29h-62m58 30h-64m60 28h-67m60 31h-67" stroke="#41B4E6" stroke-width="2.52"/><g opacity=".2" fill="#8ACDF9"><path d="M521.211 125.554l.612 1.567a5.647 5.647 0 0 0 3.136 3.135l1.568.611a.893.893 0 0 1 0 1.567l-1.568.611a5.647 5.647 0 0 0-3.136 3.135l-.612 1.567a.893.893 0 0 1-1.662 0l-.611-1.567a5.707 5.707 0 0 0-3.137-3.135l-1.568-.611a.877.877 0 0 1 0-1.567l1.568-.611a5.707 5.707 0 0 0 3.137-3.135l.611-1.567a.894.894 0 0 1 1.662 0zm-86.701 46.468l.862 2.163a7.837 7.837 0 0 0 4.438 4.435l2.164.862a1.253 1.253 0 0 1 0 2.335l-2.164.862a7.837 7.837 0 0 0-4.438 4.435l-.862 2.163a1.254 1.254 0 0 1-2.337 0l-.862-2.163a7.837 7.837 0 0 0-4.438-4.435l-2.164-.862a1.253 1.253 0 0 1 0-2.335l2.164-.862a7.837 7.837 0 0 0 4.438-4.435l.862-2.163a1.254 1.254 0 0 1 2.337 0zM62.159 335.279l.862 2.178a7.961 7.961 0 0 0 4.438 4.372l2.164.862a1.255 1.255 0 0 1 0 2.32l-2.164.862a7.931 7.931 0 0 0-4.485 4.513l-.862 2.163a1.254 1.254 0 0 1-2.337 0l-.862-2.163a7.929 7.929 0 0 0-4.438-4.45l-2.164-.862a1.255 1.255 0 0 1 0-2.32l2.164-.862a7.963 7.963 0 0 0 4.438-4.435l.862-2.178a1.254 1.254 0 0 1 2.384 0zm344.344-70.588l.345.862c.333.82.984 1.47 1.803 1.802l.863.345a.502.502 0 0 1 0 .925l-.863.36a3.136 3.136 0 0 0-1.803 1.787l-.345.862a.5.5 0 0 1-.925 0l-.361-.862a3.135 3.135 0 0 0-1.787-1.787l-.863-.36a.502.502 0 0 1 0-.925l.863-.345a3.134 3.134 0 0 0 1.787-1.802l.361-.862a.502.502 0 0 1 .925 0zM87.923 67.128l.36.862a3.14 3.14 0 0 0 1.789 1.787l.878.36a.502.502 0 0 1 0 .925l-.878.36a3.136 3.136 0 0 0-1.788 1.787l-.36.862a.502.502 0 0 1-.926 0l-.345-.862a3.135 3.135 0 0 0-1.725-1.787l-.862-.36a.501.501 0 0 1 0-.925l.862-.36a3.135 3.135 0 0 0 1.803-1.787l.346-.862a.502.502 0 0 1 .846 0zm115.351 217.247l.361.862c.319.82.967 1.468 1.788 1.787l.878.36a.503.503 0 0 1 0 .925l-.878.345a3.133 3.133 0 0 0-1.788 1.802l-.361.862a.5.5 0 0 1-.925 0l-.345-.862a3.228 3.228 0 0 0-1.803-1.802l-.863-.345a.5.5 0 0 1 0-.925l.863-.36a3.136 3.136 0 0 0 1.803-1.787l.345-.862a.487.487 0 0 1 .925 0zm281.384 22.177l.345.862a3.263 3.263 0 0 0 1.788 1.802l.878.345a.502.502 0 0 1 0 .924l-.878.361a3.138 3.138 0 0 0-1.788 1.786l-.345.862a.5.5 0 0 1-.94 0l-.345-.862a3.138 3.138 0 0 0-1.788-1.786l-.878-.361a.502.502 0 0 1 0-.924l.878-.345a3.263 3.263 0 0 0 1.788-1.802l.345-.862a.5.5 0 0 1 .94 0z"/><path d="M207.853 155.785l.345.878a3.231 3.231 0 0 0 1.788 1.787l.878.345a.5.5 0 0 1 0 .94l-.878.345a3.232 3.232 0 0 0-1.788 1.786l-.345.878a.502.502 0 0 1-.941 0l-.345-.878a3.228 3.228 0 0 0-1.787-1.786l-.878-.345a.502.502 0 0 1 0-.94l.878-.345a3.226 3.226 0 0 0 1.787-1.787l.345-.878a.503.503 0 0 1 .941 0z" opacity=".5"/><path d="M26.39 117.718l.345.877c.305.817.935 1.47 1.74 1.803l.863.345a.501.501 0 0 1 0 .94l-.862.345a3.135 3.135 0 0 0-1.804 1.786l-.345.878a.501.501 0 0 1-.94 0l-.345-.878a3.132 3.132 0 0 0-1.788-1.786l-.878-.345a.502.502 0 0 1 0-.94l.878-.345a3.137 3.137 0 0 0 1.788-1.787l.345-.877a.503.503 0 0 1 1.003-.016zM14.535 406.085l.345.862a3.134 3.134 0 0 0 1.803 1.802l.816.471a.501.501 0 0 1 0 .94l-.863.345a3.135 3.135 0 0 0-1.803 1.786l-.345.878a.501.501 0 0 1-.94 0l-.346-.878a3.132 3.132 0 0 0-1.787-1.786l-.879-.345a.502.502 0 0 1 0-.94l.879-.345a3.137 3.137 0 0 0 1.787-1.802l.345-.862a.502.502 0 0 1 .988-.126zM25.34 274.596l.344.878c.319.82.968 1.468 1.788 1.786l.878.345a.502.502 0 0 1 0 .94l-.878.345a3.14 3.14 0 0 0-1.82 1.818l-.344.878a.503.503 0 0 1-.94 0l-.346-.878a3.135 3.135 0 0 0-1.819-1.818l-.862-.345a.501.501 0 0 1 0-.94l.862-.345a3.135 3.135 0 0 0 1.803-1.786l.345-.878a.502.502 0 0 1 .988 0zm481.413-43.318l.283.69a2.49 2.49 0 0 0 1.411 1.41l.69.282a.393.393 0 0 1 0 .737l-.69.282a2.475 2.475 0 0 0-1.411 1.426l-.283.721a.39.39 0 0 1-.737 0l-.282-.689a2.506 2.506 0 0 0-1.427-1.427l-.69-.282a.39.39 0 0 1 0-.736l.69-.282a2.525 2.525 0 0 0 1.427-1.411l.282-.689a.393.393 0 0 1 .737-.032z"/></g><path d="M151.228 164.264a33.444 33.444 0 0 1-5.939 7.928l-2.321 2.135a2.92 2.92 0 0 0-.951 2.481 2.948 2.948 0 0 0 1.463 2.229s2.529.565 7.908 7.048c2.545 3.046 6.243 5.683 6.483 4.71.513-2.135-.496-3.705-3.201-6.798-6.404-7.033-1.297-14.521 1.264-17.268.929-1.005-.112-2.873-1.344-3.454-1.21-.61-2.695-.173-3.362.989z" fill="#FAB9AF"/><path d="M159.954 75.491c-10.35-13.729-27.438 1.273-20.232 12.442 5.136 8.011 16.139 24.238 25.476 35.8l.249.314a9.085 9.085 0 0 1 .856 9.566c-2.506 4.98-5.385 10.18-8.03 15.034-5.525 10.179-9.774 19.007-9.774 19.007a11.423 11.423 0 0 0 5.167 3.346s23.998-23.06 31.234-39.272a12.734 12.734 0 0 0 1.09-5.262.625.625 0 0 0 0-.22c-3.253-13.164-17.399-39.287-26.036-50.755z" fill="#050085"/><path d="M186.481 233.533c29.829-29.815 29.829-78.154 0-107.969-29.83-29.815-78.193-29.815-108.022 0-29.83 29.815-29.83 78.154 0 107.969 29.829 29.815 78.192 29.815 108.022 0z" fill="url(#paint8_radial)"/><path opacity=".49" d="M128.292 161.869c6.978-12.375 2.6-28.061-9.781-35.036-12.38-6.975-28.074-2.599-35.053 9.776-6.978 12.374-2.6 28.06 9.78 35.035 12.381 6.976 28.075 2.599 35.054-9.775z" fill="url(#paint9_radial)"/><path d="M127.004 154.172c2.737-11.664-4.504-23.337-16.173-26.072-11.67-2.736-23.349 4.501-26.086 16.165-2.737 11.664 4.504 23.337 16.174 26.073 11.669 2.735 23.348-4.502 26.085-16.166z" fill="url(#paint10_radial)"/><path d="M121.573 135c4.686 9.732 1.5 21.44-7.466 27.432-8.966 5.991-20.963 4.429-28.107-3.66 3.663 7.605 11.4 12.378 19.817 12.224 8.418-.153 15.977-5.205 19.362-12.938A21.701 21.701 0 0 0 121.573 135z" fill="#000" opacity=".15"/><path opacity=".49" d="M187.984 231.273c8.2-8.196 8.2-21.484 0-29.68-8.2-8.196-21.495-8.196-29.695 0-8.199 8.196-8.199 21.484 0 29.68 8.2 8.196 21.495 8.196 29.695 0z" fill="url(#paint11_radial)"/><path d="M189.64 219.121c1.474-9.109-4.718-17.688-13.832-19.162-9.113-1.473-17.697 4.716-19.171 13.826-1.475 9.109 4.718 17.688 13.832 19.162 9.113 1.473 17.697-4.716 19.171-13.826z" fill="url(#paint12_radial)"/><path d="M185.767 205c3.63 7.571 1.129 16.661-5.864 21.306-6.992 4.646-16.337 3.425-21.903-2.86a16.829 16.829 0 0 0 15.446 9.552 16.827 16.827 0 0 0 15.127-10.05A16.842 16.842 0 0 0 185.767 205z" fill="#000" opacity=".15"/><path opacity=".49" d="M131.426 229.478c1.377-8.45-4.36-16.415-12.814-17.792-8.454-1.376-16.423 4.359-17.8 12.808-1.376 8.45 4.361 16.416 12.814 17.792 8.454 1.376 16.424-4.359 17.8-12.808z" fill="url(#paint13_radial)"/><path d="M121.398 238.037c6.107-2.925 8.686-10.245 5.76-16.35-2.926-6.105-10.25-8.682-16.358-5.757-6.107 2.924-8.686 10.244-5.76 16.349s10.25 8.682 16.358 5.758z" fill="url(#paint14_radial)"/><path d="M124.948 219c2.603 5.403.805 11.886-4.215 15.201-5.021 3.315-11.73 2.449-15.733-2.03 2.041 4.237 6.377 6.903 11.103 6.827 4.725-.076 8.972-2.88 10.874-7.18A11.96 11.96 0 0 0 124.948 219z" fill="#000" opacity=".15"/><path d="M142.5 198c6.351 0 11.5-5.149 11.5-11.5s-5.149-11.5-11.5-11.5-11.5 5.149-11.5 11.5 5.149 11.5 11.5 11.5z" fill="url(#paint15_radial)"/><path d="M151 186.984a9 9 0 1 1-8.984-8.984 8.984 8.984 0 0 1 8.984 8.984z" fill="url(#paint16_radial)"/><path d="M148.76 181c1.939 4.061.612 8.943-3.109 11.437A8.885 8.885 0 0 1 134 190.893c1.515 3.172 4.72 5.165 8.208 5.106 3.489-.06 6.625-2.162 8.032-5.384a9.092 9.092 0 0 0-1.48-9.615z" fill="#000" opacity=".15"/><path opacity=".49" d="M84.94 205.608c8.536-3.562 12.567-13.365 9.003-21.896-3.563-8.532-13.371-12.56-21.907-8.999-8.535 3.562-12.566 13.365-9.002 21.897 3.563 8.531 13.371 12.56 21.907 8.998z" fill="url(#paint17_radial)"/><path d="M83.45 202.071c6.579-2.74 9.69-10.293 6.949-16.869-2.742-6.576-10.298-9.686-16.877-6.946-6.58 2.741-9.69 10.293-6.95 16.869 2.742 6.576 10.298 9.686 16.877 6.946z" fill="url(#paint18_radial)"/><path d="M88.636 181a13.044 13.044 0 0 1 1.291 5.683c.012 5.476-3.355 10.387-8.453 12.33A13.069 13.069 0 0 1 67 195.424a13.118 13.118 0 0 0 12.05 7.575 13.122 13.122 0 0 0 11.848-7.89 13.217 13.217 0 0 0-2.262-14.093V181z" fill="#000" opacity=".15"/><path d="M164.5 156c9.113 0 16.5-7.387 16.5-16.5s-7.387-16.5-16.5-16.5-16.5 7.387-16.5 16.5 7.387 16.5 16.5 16.5z" fill="url(#paint19_radial)"/><path d="M169.731 151.479c6.58-2.74 9.691-10.293 6.949-16.869-2.741-6.576-10.297-9.686-16.876-6.946-6.58 2.74-9.691 10.293-6.949 16.869 2.741 6.576 10.297 9.686 16.876 6.946z" fill="url(#paint20_radial)"/><path d="M174.636 131a13.042 13.042 0 0 1 1.291 5.683c.012 5.476-3.355 10.387-8.453 12.33A13.07 13.07 0 0 1 153 145.424a13.117 13.117 0 0 0 12.05 7.575 13.122 13.122 0 0 0 11.848-7.89 13.217 13.217 0 0 0-2.262-14.093V131z" fill="#000" opacity=".1"/><path d="M204 174.984A16 16 0 1 1 188 159a15.986 15.986 0 0 1 16 15.984z" fill="url(#paint21_radial)"/><path d="M197.565 183.982c5.04-5.038 5.04-13.205 0-18.243-5.04-5.037-13.211-5.037-18.251 0-5.04 5.038-5.04 13.205 0 18.243 5.04 5.037 13.211 5.037 18.251 0z" fill="url(#paint22_radial)"/><path d="M198.636 166a13.22 13.22 0 0 1-.747 12.688 13.13 13.13 0 0 1-11.083 6.157A13.06 13.06 0 0 1 177 180.43a13.118 13.118 0 0 0 12.05 7.569 13.12 13.12 0 0 0 11.848-7.884 13.2 13.2 0 0 0-2.262-14.083V166z" fill="#000" opacity=".15"/><path d="M216 61.247c-.186-4.601.093-7.198-1.662-12.504-9.132-.305-19.507-1.203-23.685-.45-6.895 1.251-8.619 8.898-8.619 8.898-.249 2.036.761 4.617 7.004 4.809 3.417 0 15.888-1.683 26.962-.753z" fill="#E8E8E8"/><path d="M299 20.197C241.784 1.54 197.325-4.285 192.11 3.112 185.941 11.78 205.867 52.09 242.455 100L299 20.197z" fill="url(#paint23_linear)"/><path d="M247.877 92L254 83.461c-20.178-26.446-35.837-43.1-48.302-61.963a1.553 1.553 0 0 0-1.888-.306 1.57 1.57 0 0 0-.761 1.763c6.466 14.633 20.053 36.567 44.828 69.045z" fill="#fff" opacity=".41"/><path d="M299 19.92C241.698 1.52 197.222-4.223 192.004 3.066c-.469.65 39.055 9.797 95.467 32.934L299 19.92z" fill="#000" opacity=".19"/><path d="M155.952 100l47.256-36.971a5.653 5.653 0 0 0 1.148-6.749l-2.547-4.823c-3.845-7.39-12.823-10.493-20.437-7.062L133 66.239 155.952 100zm-59.56 53.266a33.485 33.485 0 0 1-8.952 3.733l-3.097.618c-.912.185-1.68.79-2.071 1.63a2.906 2.906 0 0 0 .088 2.628s1.812 1.727 2.974 9.858c.557 3.826 2.292 7.883 2.974 7.189 1.548-1.543 1.548-3.363.743-7.344-1.673-9.071 6.304-12.866 9.85-13.884 1.27-.386 1.379-2.484.636-3.595a2.438 2.438 0 0 0-3.145-.833z" fill="#FAB9AF"/><path opacity=".1" d="M147.888 90.484c-3.905-16.836-23.621-11.297-21.558 1.873 1.465 9.44 2.661 29.895 6.535 44.339l.095.378a9.027 9.027 0 0 1-3.15 9.094c-4.362 3.525-9.164 7.081-13.589 10.432a473.492 473.492 0 0 0-16.834 13.312c.068.241.152.478.252.708a29.723 29.723 0 0 1-4.598 2.187l-3.008.991a2.975 2.975 0 0 0-1.48 4.547s2.031 1.574 4.204 9.63c1.024 3.808 3.26 7.71 3.874 6.923 1.339-1.731 1.071-3.587-.141-7.521a11.214 11.214 0 0 1 3.889-12.588c.129.125.265.24.409.347 0 0 31.605-11.14 44.927-22.894a12.754 12.754 0 0 0 3.149-4.359c0-.125.095-.188 0-.204 2.63-13.422.299-43.16-2.976-57.195z" fill="#450B82"/><path d="M149.35 81.432c-1.865-17.182-24.335-13.205-23.865.11.329 9.558 1.411 29.16 3.542 43.921v.393a9.067 9.067 0 0 1-4.153 8.615c-4.701 2.971-9.887 5.926-14.666 8.709A526.901 526.901 0 0 0 92 154.435 11.65 11.65 0 0 0 94.742 160s32.561-7.278 47.102-17.292a12.664 12.664 0 0 0 3.635-3.946l.11-.188c4.058-13.063 5.328-42.821 3.761-57.142z" fill="#2434A0"/><path d="M139.407 95.256a39.264 39.264 0 0 0 9.402 9.958 4.585 4.585 0 0 0 5.563-.328l50.85-42.333a3.933 3.933 0 0 0 .251-4.315l-3.51-6.972c-3.589-7.163-12.2-10.23-19.526-6.957l-47.715 21.167a6.252 6.252 0 0 0-3.699 6.253 48.938 48.938 0 0 0 8.384 23.527z" fill="#167AF5"/><path d="M201.761 51.215c-1.524-3.211-4.06-5.762-7.172-7.215-2.612 2.005-3.359 5.773-1.728 8.715 1.63 2.942 5.108 4.1 8.044 2.68A6.39 6.39 0 0 0 203 53.783l-1.239-2.567z" fill="#fff"/><path d="M268.707 58.627c-1.099 1.212-2.335 2.298-2.716 2.825a9.49 9.49 0 0 0-.519 1.149 4.826 4.826 0 0 1-1.113 1.947l-2.197 1.596a2.015 2.015 0 0 0-1.079 1.279 2.124 2.124 0 0 0 .225 1.69c.778 1.228 2.12 1.085 3.188.159l1.526-1.086a7.657 7.657 0 0 1 3.051-1.34 12.083 12.083 0 0 0 5.37-4.357c.839-1.07.595-2.937.152-5.379-.229-1.213-.915-3-1.617-1.596-.702 1.405-.153 4.884-3.554 6.017-.168 0-.595.16-.733 0-.366-.558.763-1.468 1.175-2.138.58-.942.534-1.772.214-2.075-.321-.303-.58.43-1.373 1.309z" fill="#FAB9AF"/><path d="M184.105 59.888s30.353 18.495 46.28 17.03c10.952-1.03 33.044-7.283 33.044-7.283s1.69-1.7 1.564-2.683a26.453 26.453 0 0 0-.469-2.65 8.372 8.372 0 0 1-4.146 1.606c-8.558.888-27.818 1.56-32.121.483-5.57-1.31-32.965-16.561-38.676-16.39-5.711.172-10.483 5.084-5.476 9.887z" fill="#FAB9AF"/><path d="M213 59.2c-9.763-4.7-21.472-10.308-24.913-10.198-6.229.188-9.654 7.832-4.765 11.184A200.551 200.551 0 0 0 208.547 73 26.583 26.583 0 0 0 213 59.2z" fill="#2434A0"/><path d="M213 59.208c-9.763-4.696-21.472-10.3-24.913-10.207-6.229.188-9.654 7.828-4.765 11.193A200.606 200.606 0 0 0 208.547 73 26.555 26.555 0 0 0 213 59.208z" fill="#fff"/><path d="M219.808 29.462a14.47 14.47 0 0 1-1.541 9.223c-1.541 2.666.832 4.603-.355 4.889-1.575.454-2.741 1.824-2.974 3.492-.339.92-1.14 5.318-6.471 2.54-1.942-1-3.698.587-4.623 3.254 0 0-2.665 4.397-8.844-4.08 0 0 4.823-9.286 5.1-18.16 6.949-4.174 13.159-9.635 19.708-1.158z" fill="#FAB9AF"/><path d="M199.878 25.246a6.62 6.62 0 0 0-2.445 0c.92-1.32 2.511-2.044 4.143-1.883.687-1.304 1.996-2.19 3.492-2.363a2.691 2.691 0 0 0-1.682 1.961c5.27-2.409 11.111-1.451 14.762-.448a9.102 9.102 0 0 0 6.191-.51 24.617 24.617 0 0 1 1.587-.648 9.48 9.48 0 0 1 .715 10.809c-2.143 3.196-6.683 2.934-9.525 2.424a14.558 14.558 0 0 1-3.254-1.173c-2.778-1.282-5.921 1.436-7.048 3.706-1.254 2.517-.317 7.504 2.493 6.64a14.849 14.849 0 0 1 7 .4s.555 4.633-1.127 6.177c-2.476 2.24-10.477-1.714-12.493-4.292-2.016-2.579 2.492-8.524 1.27-10.917-1.222-2.394-4.127.772-2.302 2.918.842 1.004-2.301 6.285-2.301 6.285-5.35-2.224-6.429-13.064.524-19.086z" fill="url(#paint24_linear)"/><path d="M212.569 344.583H217a44.564 44.564 0 0 0-1.073-1.986c-.828-1.457-2.131-1.655-3.864-2.367l-2.698-.828a8.134 8.134 0 0 0-2.346-.397c-1.126-.034-2.251.1-3.343.397L199 340.611l1.349 4.966 2.929-.365c1.303 2.053 7.911-.546 9.291-.629z" fill="#FAB9AF"/><path d="M143.584 345.519c-.094-7.736 2.488-17.374-13.631-33.129a1.262 1.262 0 0 0-1.705-.11c-1.331 1.101-5.587 1.572-7.825 3.538-4.022 3.584-11.064 14.827-9.077 19.842 4.241 10.723 5.18 18.223 4.601 30.299-.454 12.389 12.363 24.905 22.097 21.462a10.308 10.308 0 0 0 6.495-6.777 9.082 9.082 0 0 0-.595-7.107c-3.709-7.107-.094-2.201-.36-28.018z" fill="#24339E"/><path d="M156.14 455.624a182.846 182.846 0 0 0 .893-58.961c-.8-5.123-4.868-9.062-9.924-9.608a11.831 11.831 0 0 0-9.413 3.332c-2.514 2.454-3.857 5.902-3.681 9.447a86.645 86.645 0 0 0 1.539 11.538c3.339 17.409 9.847 98.347 9.893 98.379a16.3 16.3 0 0 1-.692 5.729c-.954 2.324-1.708 4.506 1.538 4.506 2.508 0 2.831-.565 6.232-.189 1.747.2 3.506.252 5.262.157a.684.684 0 0 0 .604-.598.693.693 0 0 0-.435-.736 56.007 56.007 0 0 1-6.554-2.135c-1.924-.989-2.647-1.083-2.662-3.438a10.62 10.62 0 0 1 .108-1.727l7.292-55.696z" fill="#FAB9AF"/><path d="M158.44 518.687a71.312 71.312 0 0 1-6.595-1.928 8.83 8.83 0 0 1-2.657.395 7.983 7.983 0 0 1-4.429-1.154c-.917 2.074-1.581 3.987 1.582 3.987 2.578 0 2.91-.526 6.405-.176 1.796.186 3.605.235 5.409.146.38.073.752-.153.83-.503.079-.351-.165-.694-.545-.767z" fill="#05006D"/><path d="M115.242 462s14.954-.961 15.955-3.041c6.61-13.566 13.235-60.064 11.532-72.984l-11.47-.961c-5.797-.273-11.037 3.46-12.72 9.06-2.5 8.351-4.891 22.421-2.641 42.936 0 0 3.704 14.638-.656 24.99z" fill="#FAB9AF"/><path d="M127 445l-.568.173c-6.488 1.735-46.459 13.259-53.768 15.356a25.58 25.58 0 0 1-2.557.363 6.02 6.02 0 0 1-2.778-.615c-1.99-.772-2.936.268-4.247 3.264-1.105 2.506-4.278 2.175-4.072 4.382.3 3.059 1.041 4.998 1.815 5.077 1.12 0 .994-.773 1.578-3.595.253-1.103 2.574-2.286 4.736-3.153a22.982 22.982 0 0 1 7.704-1.576c7.404-.316 24.879-.962 39.37-2.286 4.515-.426 9.282-1.325 12.629-1.766L127 445z" fill="#FAB9AF"/><path d="M70 460.783a6.606 6.606 0 0 1-1.712-.537c-1.98-.774-2.922.269-4.226 3.272-1.1 2.512-4.257 2.181-4.052 4.393.298 3.066 1.036 5.01 1.806 5.089 1.115 0 .99-.774 1.57-3.603.205-.901 1.791-1.865 3.598-2.687A7.746 7.746 0 0 1 70 460.783z" fill="#05006D"/><path d="M149.524 508l6.616-52.691a181.186 181.186 0 0 0 .893-58.691c-.8-5.099-4.868-9.02-9.924-9.563a11.861 11.861 0 0 0-9.413 3.317 12.26 12.26 0 0 0-3.681 9.403 85.866 85.866 0 0 0 1.539 11.485c3.077 16.094 8.462 86.739 9.232 96.74h4.738z" fill="#050085"/><path d="M135.407 411.228c1.719 8.97 4.129 34.83 6.14 57.772a143.594 143.594 0 0 0 2.072-8.625c1.78-8.797 2.102-17.783 3.269-26.659 1.044-8.123 4.251-16.199 4.604-24.338a7.387 7.387 0 0 1 2.625-5.567c2.117-1.729 3.185-4.471 2.809-7.214-.798-5.117-4.856-9.052-9.9-9.597h-.292c-3.514-.012-6.877 1.466-9.285 4.082-2.409 2.615-3.648 6.134-3.423 9.718a88.758 88.758 0 0 0 1.381 10.428z" fill="#05006D"/><path d="M142.659 385.975l-11.567-.961a12.779 12.779 0 0 0-12.827 9.055c-2.522 8.347-4.933 22.41-2.663 42.915l.914 10.898c-12.702 3.622-32.495 8.504-40.516 10.819l.882 6.299c7.533-.315 23.843-1.748 38.136-3.055 0 0 14.593-.803 16.09-3.04 8.352-12.598 13.269-60.017 11.551-72.93z" fill="#2434A0"/><path d="M198.187 340.72l-26.495 13.291c-10.91-2.559-29.487-13.003-35.269-14.011-.561 3.023-1.745 6.03-1.34 9.948.422 3.78 3.077 6.899 6.67 7.837 10.551 2.783 26.027 7.597 32.729 5.838 8.743-2.335 25.216-18.073 25.216-18.073.608-1.392.39-4.43-1.511-4.83z" fill="#050085"/><path d="M198.182 340.736l-26.493 13.275c-10.908-2.543-29.484-13.003-35.266-14.011-.561 3.023-1.745 6.03-1.34 9.948.418 3.782 3.074 6.903 6.67 7.837 10.565 2.783 26.04 7.597 32.726 5.838 8.758-2.335 25.23-18.073 25.23-18.073.592-1.392.374-4.35-1.527-4.814z" fill="#050085"/><path d="M198.187 340.717l-26.495 13.247c-10.91-2.55-29.487-12.96-35.269-13.964-.561 3.013-1.745 6.01-1.34 9.915.394 3.792 3.046 6.936 6.655 7.891 10.566 2.773 26.042 7.572 32.728 5.818 8.759-2.327 25.232-18.013 25.232-18.013.608-1.466.39-4.495-1.511-4.894z" fill="#fff"/><path d="M149.269 370.625c-.348-.715-1.8-3.111-.3-4.666 1.184-1.338 2.92-4.464 2.525-6.33-.394-1.867-.236-4.76-2.683-8.228-6.788-9.612-12.17-11.385-12.17-11.385-3.915-.14-11.05.684-17.206.949-20.346.917-11.538 11.54-11.538 11.54a28.446 28.446 0 0 1 5.887 8.197l7.688 16.129c.789 2.535-1.579 10.016-2.4 12.536l-1.752 5.288a1.55 1.55 0 0 0 .947 1.913c8.887 3.033 26.834 3.484 38.231-.109a2.132 2.132 0 0 0 1.343-1.22 2.084 2.084 0 0 0-.096-1.797l-8.476-22.817z" fill="#167AF5"/><path d="M117.699 310.773c-5.751 1.57-6.75 6.42-4.767 14.127a16.476 16.476 0 0 0 4.336 7.079 5.98 5.98 0 0 1 1.753 4.316l-.077 4.709c.246 4.301 2.737 5.98 5.735 5.996a5.538 5.538 0 0 0 4.059-1.946c1.184-1.35.738-3.406 0-5.055l-.661-1.145a3.19 3.19 0 0 1-.399-2.488 3.13 3.13 0 0 1 1.522-1.986 11.742 11.742 0 0 0 3.244-2.558c.753-.911 1.214-7.754-1.861-14.865-3.182-7.345-7.134-7.816-12.884-6.184z" fill="#FAB9AF"/><path d="M110.095 317.096c4.72-9.057 14.962-12.009 20.122-8.902 2.785 1.654 6.655 8.778.488 9.025a7.456 7.456 0 0 1-4.233-1.251 1.977 1.977 0 0 0-1.415-.279l-4.028 1.345c-3.302 1.12-5.07 4.642-3.965 7.897l.394 1.175a.705.705 0 0 1-.242.734.734.734 0 0 1-.781.085l-.236-.433a4.614 4.614 0 0 0-2.973-2.287c-2.675-.68-5.979-1.685-3.131-7.109z" fill="#24339E"/><path d="M153.967 391.299l-17.656 4.648a1.512 1.512 0 0 1-1.275-.228 1.446 1.446 0 0 1-.609-1.12l-1.425-30.368a1.552 1.552 0 0 1 1.092-1.549l17.418-4.648c.435-.091.889.003 1.25.256.362.253.598.644.65 1.076l1.584 30.368a1.548 1.548 0 0 1-1.029 1.565z" fill="#5046AF"/><path d="M103.12 348.34c2.953-9.51 13.206-4.755 13.206 2.151 0 3.118.641 20.267-.782 26.238-.547 2.338-.64 4.037 2.142 3.663l26.428-4.115c1.391 1.824.875 3.663.266 5.503 0 0-19.677 8.886-30.023 11.567-2.626.686-8.424 1.668-9.956-2.042-1.688-4.209-3.704-35.17-1.281-42.965z" fill="#050085"/><path d="M150.435 372.413c-1.442.882-3.068 1.575-3.528 2.015a7.945 7.945 0 0 0-.828.992c-.43.52-1.028 1.401-1.657 1.575l-2.654.913c-1.288.425-2.071 1.385-1.657 2.708.445 1.432 1.841 1.684 3.176 1.07l1.856-.614a8.401 8.401 0 0 1 3.436-.456 12.393 12.393 0 0 0 6.596-2.755c1.136-.819.859-2.157.568-4.724-.169-1.574-.69-4.014-1.703-2.818-.491.567.092 4.944-3.666 5.07-.184 0-.644 0-.721-.236-.23-.646 1.166-1.228 1.749-1.779.843-.756 1.028-1.575.782-1.984-.245-.41-.721.425-1.749 1.023z" fill="#FAB9AF"/><path d="M122.776 376.95a27.225 27.225 0 0 0-2.567-18.057 72.045 72.045 0 0 1-4.806-13.254c-1.198-4.164-2.986-7.626-3.266-11.945-.42-6.393 1.259-12.802 6.937-17.153 2.52-1.902 2.737-4.319 5.926-4.678a9.284 9.284 0 0 0-2.364-2.464s-11.091-4.537-15.181 2.729c-4.091 7.267-4.013 17.013-12.802 29.207-16.207 22.517-13.096 32.434-5.18 41.182 8.867 9.793 31.047 5.567 33.303-5.567z" fill="#24339E"/><path d="M115.875 326.253c.816 1.604 1.808 3.801.466 4.586-1.341.786-4.169-1.475-4.986-3.207-.816-1.732-.145-2.597 1.196-3.383s2.507.401 3.324 2.004z" fill="#FAB9AF"/><path d="M103.12 348.32c2.953-9.514 13.206-4.679 13.206 2.152 0 3.119.641 20.276-.782 26.249-.547 2.324-.64 4.04 2.142 3.665l26.428-4.117c1.391 1.809.875 3.649.266 5.49 0 0-19.677 8.905-30.023 11.588-2.626.686-8.424 1.669-9.956-2.043-1.688-4.211-3.704-35.186-1.281-42.984z" fill="#fff"/><path d="M414.607 457.595c0 .123-.487 1.545.44 1.653 0 0 0 .108.817 0 .383.63 1.165.908 1.869.664l4.54-.695a8.508 8.508 0 0 0 5.64-4.018s21.112-6.721 23.264-9.271c2.153-2.549 4.823-15.451 4.823-15.451L448.004 427s-1.351 11.682-4.037 13.752c-2.686 2.071-17.374 10.461-17.374 10.461s-3.22-1.808-4.367-1.669c-.503 0-3.786.433-3.723 1.375 0 .649 1.304.897 2.121.866a9.593 9.593 0 0 1 1.571-.093c.094 0 0 .17-.189.309-.738.541-3.142 1.545-4.602 2.38a11.162 11.162 0 0 0-3.315 2.425.503.503 0 0 0-.006.563c.113.172.32.261.524.226z" fill="#FAB9AF"/><path fill-rule="evenodd" clip-rule="evenodd" d="M447 487.833v10.38a4.344 4.344 0 0 1-4.31 4.331h-3.218a4.826 4.826 0 0 0-4.56 3.236 36.791 36.791 0 0 1-1.765 4.283 4.802 4.802 0 0 0 .922 5.518l2.249 2.236a4.346 4.346 0 0 1 0 6.159l-7.325 7.331a4.355 4.355 0 0 1-6.138 0l-2.28-2.282a4.837 4.837 0 0 0-5.513-.938 41.364 41.364 0 0 1-4.295 1.782 4.814 4.814 0 0 0-3.232 4.549v3.236c0 2.4-1.944 4.346-4.342 4.346h-10.355a4.344 4.344 0 0 1-4.341-4.346v-3.236a4.817 4.817 0 0 0-3.233-4.549 41.364 41.364 0 0 1-4.295-1.782 4.808 4.808 0 0 0-5.529 1.001l-2.28 2.282a4.37 4.37 0 0 1-6.153 0l-7.325-7.332a4.346 4.346 0 0 1 0-6.159l2.281-2.282a4.837 4.837 0 0 0 .937-5.519 34.368 34.368 0 0 1-1.781-4.283 4.81 4.81 0 0 0-4.56-3.236h-3.217a4.344 4.344 0 0 1-4.342-4.346v-10.38c0-2.4 1.944-4.345 4.342-4.345h3.217a4.826 4.826 0 0 0 4.56-3.221 34.498 34.498 0 0 1 1.781-4.299 4.851 4.851 0 0 0-.937-5.518l-2.281-2.282a4.335 4.335 0 0 1 0-6.144l7.325-7.331a4.341 4.341 0 0 1 6.153 0l2.312 2.282a4.79 4.79 0 0 0 5.497.922 41.346 41.346 0 0 1 4.295-1.766 4.817 4.817 0 0 0 3.233-4.549v-3.221a4.34 4.34 0 0 1 4.341-4.361h10.355c1.154 0 2.261.46 3.075 1.278a4.35 4.35 0 0 1 1.267 3.083v3.205a4.813 4.813 0 0 0 3.232 4.549 41.364 41.364 0 0 1 4.295 1.782 4.821 4.821 0 0 0 5.513-.922l2.28-2.282a4.322 4.322 0 0 1 6.138 0l7.325 7.331a4.335 4.335 0 0 1 0 6.144l-2.281 2.282a4.819 4.819 0 0 0-.921 5.518 37.099 37.099 0 0 1 1.765 4.299 4.843 4.843 0 0 0 4.56 3.221h3.217a4.343 4.343 0 0 1 4.342 4.345zm-70.35 15.076a23.579 23.579 0 0 0 23.279 13.657c11.532-.926 20.696-10.079 21.646-21.62a23.608 23.608 0 0 0-13.593-23.33 23.567 23.567 0 0 0-26.57 4.709 23.623 23.623 0 0 0-4.762 26.584z" fill="#167AF5"/><path fill-rule="evenodd" clip-rule="evenodd" d="M462 486.736v13.434c.026 3.109-2.488 5.652-5.62 5.686h-4.266a6.296 6.296 0 0 0-5.951 4.171 48.036 48.036 0 0 1-2.314 5.561 6.214 6.214 0 0 0 1.212 7.155l2.975 2.952a5.599 5.599 0 0 1 1.667 3.984 5.598 5.598 0 0 1-1.667 3.983l-9.571 9.498a5.73 5.73 0 0 1-8.028 0l-2.976-2.968a6.332 6.332 0 0 0-7.194-1.203 50.395 50.395 0 0 1-5.604 2.312 6.252 6.252 0 0 0-4.219 5.889v4.186a5.6 5.6 0 0 1-1.665 3.982 5.693 5.693 0 0 1-4.018 1.642h-13.522c-3.133 0-5.675-2.515-5.683-5.624v-4.186a6.252 6.252 0 0 0-4.219-5.889 50.395 50.395 0 0 1-5.604-2.312 6.334 6.334 0 0 0-7.195 1.203l-2.975 2.968a5.73 5.73 0 0 1-8.028 0l-9.572-9.498a5.603 5.603 0 0 1-1.667-3.983c0-1.495.6-2.929 1.667-3.984l2.976-2.952a6.215 6.215 0 0 0 1.212-7.155 48.036 48.036 0 0 1-2.314-5.561 6.296 6.296 0 0 0-5.951-4.171h-4.203a5.71 5.71 0 0 1-4.019-1.651 5.621 5.621 0 0 1-1.664-3.988v-13.434c.009-3.108 2.55-5.624 5.683-5.624h4.203a6.294 6.294 0 0 0 5.951-4.186 49.267 49.267 0 0 1 2.314-5.561 6.214 6.214 0 0 0-1.212-7.139l-2.976-2.953a5.625 5.625 0 0 1 0-7.982l9.572-9.482a5.687 5.687 0 0 1 4.014-1.654c1.506 0 2.951.595 4.014 1.654l2.975 2.952a6.334 6.334 0 0 0 7.195 1.203 53.323 53.323 0 0 1 5.604-2.312 6.252 6.252 0 0 0 4.219-5.889v-4.171c0-3.114 2.544-5.639 5.683-5.639h13.522a5.69 5.69 0 0 1 4.023 1.647 5.602 5.602 0 0 1 1.66 3.992v4.171a6.252 6.252 0 0 0 4.219 5.889 53.323 53.323 0 0 1 5.604 2.312 6.332 6.332 0 0 0 7.194-1.203l2.976-2.952a5.688 5.688 0 0 1 4.014-1.654c1.506 0 2.951.595 4.014 1.654l9.571 9.482a5.623 5.623 0 0 1 0 7.982l-2.975 2.906a6.214 6.214 0 0 0-1.212 7.139 49.267 49.267 0 0 1 2.314 5.561 6.294 6.294 0 0 0 5.951 4.186h4.203c3.132 0 5.674 2.516 5.683 5.624zm-91.951 19.546c5.417 11.634 17.573 18.68 30.446 17.648 15.05-1.206 27.002-13.059 28.226-27.993 1.047-12.774-6.047-24.84-17.768-30.222-11.721-5.383-25.581-2.939-34.716 6.121-9.135 9.06-11.606 22.812-6.188 34.446z" fill="url(#paint25_linear)"/><path fill-rule="evenodd" clip-rule="evenodd" d="M358.317 510.158A43.5 43.5 0 0 0 398.516 537c24.007-.035 43.458-19.492 43.484-43.499a43.5 43.5 0 1 0-83.683 16.657zm4.805-31.305a38.297 38.297 0 0 1 35.394-23.634c21.132.026 38.256 17.15 38.282 38.282a38.297 38.297 0 1 1-73.676-14.648z" fill="url(#paint26_linear)"/><path d="M473.029 557a3.77 3.77 0 0 0 .217 1.804c.28.537 8.673 1.956 16.63.675.694-.111 1.178-.672 1.119-1.294v-.799L473.029 557z" fill="#05006D"/><path d="M473.03 556.753c.516-1.59 8.555-2.687 11.37-2.846 3.128-.191.235-2.178 2.815-1.876l2.596.302a10.85 10.85 0 0 1 1.189 4.483v.541c0 1.86-5.396 1.685-10.385 1.59-3.315 0-5.974-.175-7.413-1.59a.548.548 0 0 1-.172-.604z" fill="#05006D"/><path d="M490 545v8.32s-8.346 1.53-6.407 0l-.593-7.647 7-.673z" fill="#FAB9AF"/><path d="M445.116 556a5.648 5.648 0 0 0 0 2.28c.219.714 8.495 3.36 16.63 2.577.703-.08 1.242-.73 1.254-1.515v-1.027L445.116 556z" fill="#05006D"/><path d="M445.029 556.48c.659-1.506 8.805-1.89 11.63-1.794 3.139.128.439-2.146 2.998-1.602l2.558.545c.592 1.459.855 3.036.769 4.613v.529c-.173 1.874-5.54 1.185-10.515.656-3.312-.352-5.964-.736-7.267-2.322a.585.585 0 0 1-.173-.625z" fill="#05006D"/><path d="M464 547l-.758 8.726s-7.857.887-5.941-.532l.119-8.065L464 547z" fill="#FAB9AF"/><path d="M458.262 451.121s27.723-10.242 40.317 1.566c2.425 16.788-6.407 47.513-6.612 61.075-.173 10.962-.268 21.486-.897 36.191l-8.879-.219a305.747 305.747 0 0 1-4.408-35.032 240.686 240.686 0 0 1 .63-36.677l-2.393.11s-6.109 22.285-7.683 34.28c-1.48 11.417-2.834 24.712-3.542 37.585l-10.091-.392s-1.795-24.931-1.7-37.678a529.867 529.867 0 0 1 5.258-60.809z" fill="#05006D"/><path d="M393.466 450.404c0 .124-.899 1.408 0 1.717 0 0 0 .109.805.171a1.576 1.576 0 0 0 1.578 1.129l4.575.557a8.603 8.603 0 0 0 6.563-2.352s22.291-.773 25.068-2.614c2.777-1.841 8.945-13.505 8.945-13.505L434.248 430s-4.56 10.829-7.731 12.144c-3.171 1.314-19.704 5.398-19.704 5.398s-2.603-2.614-3.77-2.784c-.49-.077-4.165.124-4.37 1.052-.142.634.631.851 1.688.82.682.001 1.363.063 2.035.185.079.078 0 .155-.268.232-.868.325-3.503.697-5.112 1.068a10.693 10.693 0 0 0-3.881 1.438.504.504 0 0 0-.101.526.52.52 0 0 0 .432.325z" fill="#FAB9AF"/><path d="M440.724 441.085c-2.567-5.25-10.724-10.141-10.724-10.141 4.352-5.109 3.945-24.562 18.317-32.702 2.035-1.157 8.47-5.078 13.855-2.219C491.135 411.367 502 456.428 502 456.428c-17.425 7.516-45.699 3.5-45.699 3.5a80.32 80.32 0 0 0-10.802-32.702 57.357 57.357 0 0 1-4.775 13.859z" fill="#167AF5"/><path d="M430 382.675s.831 3.813 1.401 5.44c.569 1.627-.77 2.789-.662 3.332.108.542 1.539 1.053 1.539 1.053s.493 5.362 2.464 6.06c1.97.697 6.157-1.689 6.157-1.689l2.91 5.129A12.39 12.39 0 0 0 454 395.274l-2.709-4.85s-1.078-10.662-7.359-13.777c-6.281-3.115-13.932 6.028-13.932 6.028z" fill="#FAB9AF"/><path d="M425.31 381.737c-1.94-1.997-1.784-3.945.861-4.826 5.211-1.713 5.696-7.292 14.365-7.858a14.247 14.247 0 0 1 4.882.519A15.446 15.446 0 0 0 444.37 368a5.4 5.4 0 0 1 2.316 1.917c.845-.282 2.941-.895 3.693-.251a5.254 5.254 0 0 0-2.285.927c6.403 3.108 9.467 10.546 7.12 17.289-1.393 4.841-7.511 4.856-10.672 2.892 0 0 3.02-1.399 2.081-3.552-.735-1.698-2.629-2.075-3.317-.692-1.049 2.106-.705 2.216-1.409 2.499a16.624 16.624 0 0 0-2.754-5.328s-8.027 3.144-11.799.252c.686.032 1.373-.005 2.05-.11a5.846 5.846 0 0 1-4.084-2.106z" fill="#24339E"/><defs><linearGradient id="paint0_linear" x1="147.66" y1="324.851" x2="145.793" y2="533.618" gradientUnits="userSpaceOnUse"><stop stop-color="#5900D7"/><stop offset="1" stop-color="#34007D"/></linearGradient><linearGradient id="paint1_linear" x1="-462.572" y1="-67.762" x2="-462.572" y2="141.017" gradientUnits="userSpaceOnUse"><stop stop-color="#5900D7"/><stop offset="1" stop-color="#34007D"/></linearGradient><linearGradient id="paint2_linear" x1="227.132" y1="108.737" x2="227.132" y2="477.961" gradientUnits="userSpaceOnUse"><stop stop-color="#0073D8"/><stop offset=".04" stop-color="#0977DB"/><stop offset=".19" stop-color="#2686E6"/><stop offset=".36" stop-color="#3C92EE"/><stop offset=".53" stop-color="#4C9BF3"/><stop offset=".73" stop-color="#569FF7"/><stop offset="1" stop-color="#59A1F8"/></linearGradient><linearGradient id="paint3_linear" x1="272.819" y1="472.298" x2="272.804" y2="503.512" gradientUnits="userSpaceOnUse"><stop stop-color="#5900D7"/><stop offset="1" stop-color="#9482AD"/></linearGradient><linearGradient id="paint4_linear" x1="-552.876" y1="-158.599" x2="-462.891" y2="-158.599" gradientUnits="userSpaceOnUse"><stop stop-color="#5900D7"/><stop offset="1" stop-color="#34007D"/></linearGradient><linearGradient id="paint5_linear" x1="278.67" y1="155.261" x2="278.465" y2="224.195" gradientUnits="userSpaceOnUse"><stop stop-color="#D1D3D4"/><stop offset="1" stop-color="#fff"/></linearGradient><linearGradient id="paint6_linear" x1="420.171" y1="378.524" x2="416.623" y2="516.563" gradientUnits="userSpaceOnUse"><stop stop-color="#5900D7"/><stop offset="1" stop-color="#454DEF"/></linearGradient><linearGradient id="paint7_linear" x1="-661.43" y1="22.557" x2="-661.43" y2="120.871" gradientUnits="userSpaceOnUse"><stop stop-color="#5900D7"/><stop offset="1" stop-color="#454DEF"/></linearGradient><radialGradient id="paint8_radial" cx="0" cy="0" r="1" gradientUnits="userSpaceOnUse" gradientTransform="rotate(.406 -22047.973 21170.775) scale(68.8706)"><stop stop-color="#fff"/><stop offset="1" stop-color="#BA9BC9"/></radialGradient><radialGradient id="paint9_radial" cx="0" cy="0" r="1" gradientUnits="userSpaceOnUse" gradientTransform="matrix(38.46656 49.90929 -49.9005 38.45978 76.085 123.694)"><stop stop-color="#fff"/><stop offset="1" stop-color="#BA9BC9"/></radialGradient><radialGradient id="paint10_radial" cx="0" cy="0" r="1" gradientUnits="userSpaceOnUse" gradientTransform="matrix(38.4642 0 0 38.4491 81.772 115.765)"><stop stop-color="#fff"/><stop offset="1" stop-color="#BA9BC9"/></radialGradient><radialGradient id="paint11_radial" cx="0" cy="0" r="1" gradientUnits="userSpaceOnUse" gradientTransform="rotate(52.481 -124.438 249.302) scale(51.3917)"><stop stop-color="#fff"/><stop offset="1" stop-color="#BA9BC9"/></radialGradient><radialGradient id="paint12_radial" cx="0" cy="0" r="1" gradientUnits="userSpaceOnUse" gradientTransform="matrix(29.6368 0 0 29.6238 154.603 190.643)"><stop stop-color="#fff"/><stop offset="1" stop-color="#BA9BC9"/></radialGradient><radialGradient id="paint13_radial" cx="0" cy="0" r="1" gradientUnits="userSpaceOnUse" gradientTransform="matrix(23.22457 29.94741 -29.94646 23.22384 98.207 210.194)"><stop stop-color="#fff"/><stop offset="1" stop-color="#BA9BC9"/></radialGradient><radialGradient id="paint14_radial" cx="0" cy="0" r="1" gradientUnits="userSpaceOnUse" gradientTransform="matrix(21.7466 -.0026 .0026 21.7425 102.502 208.059)"><stop stop-color="#fff"/><stop offset="1" stop-color="#BA9BC9"/></radialGradient><radialGradient id="paint15_radial" cx="0" cy="0" r="1" gradientUnits="userSpaceOnUse" gradientTransform="rotate(52.37 -113.211 219.117) scale(28.1727)"><stop stop-color="#fff"/><stop offset="1" stop-color="#BA9BC9"/></radialGradient><radialGradient id="paint16_radial" cx="0" cy="0" r="1" gradientUnits="userSpaceOnUse" gradientTransform="translate(132.026 173.524) scale(24.2195)"><stop stop-color="#fff"/><stop offset="1" stop-color="#BA9BC9"/></radialGradient><radialGradient id="paint17_radial" cx="0" cy="0" r="1" gradientUnits="userSpaceOnUse" gradientTransform="matrix(25.17504 32.6082 -32.61794 25.18256 59.958 173.629)"><stop stop-color="#fff"/><stop offset="1" stop-color="#BA9BC9"/></radialGradient><radialGradient id="paint18_radial" cx="0" cy="0" r="1" gradientUnits="userSpaceOnUse" gradientTransform="matrix(22.8604 -.0028 .0028 22.8549 64.171 170.267)"><stop stop-color="#fff"/><stop offset="1" stop-color="#BA9BC9"/></radialGradient><radialGradient id="paint19_radial" cx="0" cy="0" r="1" gradientUnits="userSpaceOnUse" gradientTransform="rotate(52.37 -52.204 209.679) scale(40.4531)"><stop stop-color="#fff"/><stop offset="1" stop-color="#BA9BC9"/></radialGradient><radialGradient id="paint20_radial" cx="0" cy="0" r="1" gradientUnits="userSpaceOnUse" gradientTransform="matrix(39.4805 -.00482 .00482 39.4709 150.446 119.686)"><stop stop-color="#fff"/><stop offset="1" stop-color="#BA9BC9"/></radialGradient><radialGradient id="paint21_radial" cx="0" cy="0" r="1" gradientUnits="userSpaceOnUse" gradientTransform="rotate(52.37 -76.735 252.192) scale(39.1831)"><stop stop-color="#fff"/><stop offset="1" stop-color="#BA9BC9"/></radialGradient><radialGradient id="paint22_radial" cx="0" cy="0" r="1" gradientUnits="userSpaceOnUse" gradientTransform="translate(177.508 161.946) scale(27.3727)"><stop stop-color="#fff"/><stop offset="1" stop-color="#BA9BC9"/></radialGradient><linearGradient id="paint23_linear" x1="274.361" y1="164.271" x2="477.52" y2="6.278" gradientUnits="userSpaceOnUse"><stop stop-color="#5900D7"/><stop offset="1" stop-color="#34007D"/></linearGradient><linearGradient id="paint24_linear" x1="195.013" y1="21.046" x2="195.013" y2="51.018" gradientUnits="userSpaceOnUse"><stop stop-color="#2C80FF"/><stop offset="1" stop-color="#24339E"/></linearGradient><linearGradient id="paint25_linear" x1="334" y1="556.953" x2="462" y2="556.953" gradientUnits="userSpaceOnUse"><stop stop-color="#FF5A70"/><stop offset="1" stop-color="#454DEF"/></linearGradient><linearGradient id="paint26_linear" x1="382.588" y1="434.104" x2="339.104" y2="509.429" gradientUnits="userSpaceOnUse"><stop stop-color="#FF5A70"/><stop offset="1" stop-color="#454DEF"/></linearGradient></defs></svg>