<svg width="20" height="20" fill="none" xmlns="http://www.w3.org/2000/svg"><path fill-rule="evenodd" clip-rule="evenodd" d="M0 4a4 4 0 0 1 4-4h12a4 4 0 0 1 4 4v12a4 4 0 0 1-4 4H4a4 4 0 0 1-4-4V4zm13.204 10.78l1.866-9.376c.048-.242-.18-.444-.4-.355L4.268 9.24c-.257.103-.254.483.003.584l2.535.987.98 3.295c.064.21.31.289.475.149l1.413-1.203a.407.407 0 0 1 .513-.015l2.549 1.932c.175.133.424.033.468-.189z" fill="#fff"/><path d="M11.977 7.042l-3.722 3.269c-.143.125-.21.37-.164.6l.403 2.017c.028.143.174.128.188-.02l.104-1.105c.02-.208.09-.4.197-.543l3.072-4.071c.058-.076-.011-.205-.078-.147z" fill="#fff"/></svg>