<svg width="20" height="20" xmlns="http://www.w3.org/2000/svg" viewBox="0 0 20 20" preserveAspectRatio="none"><path d="M14.985 11.065c.459.448.944.87 1.355 1.365.182.219.354.444.486.698.186.363.017.761-.307.783h-2.015c-.52.042-.935-.168-1.284-.524-.278-.284-.538-.587-.806-.88a1.898 1.898 0 0 0-.362-.324c-.276-.178-.514-.124-.672.163-.16.292-.197.616-.212.942-.022.475-.165.6-.642.622-1.02.047-1.986-.108-2.884-.621-.793-.453-1.406-1.094-1.94-1.818-1.042-1.412-1.839-2.962-2.555-4.557-.162-.36-.043-.552.352-.56a55.141 55.141 0 0 1 1.974 0c.267.005.445.158.547.41a12.28 12.28 0 0 0 1.337 2.48c.146.206.295.41.506.556.233.161.411.108.521-.153.07-.166.101-.343.116-.52a7.8 7.8 0 0 0-.032-1.824c-.056-.379-.27-.624-.647-.695-.193-.037-.164-.108-.071-.218.162-.19.315-.308.619-.308h2.277c.36.07.44.232.489.593l.001 2.533c-.004.14.07.554.321.646.201.067.335-.095.456-.223.545-.579.934-1.264 1.282-1.972.154-.312.287-.636.416-.96.096-.24.244-.357.514-.353l2.193.003c.065 0 .131 0 .195.01.369.064.47.223.355.585-.179.566-.53 1.038-.871 1.511-.366.507-.756.996-1.12 1.505-.332.466-.306.7.108 1.105zM4 0a4 4 0 0 0-4 4v12a4 4 0 0 0 4 4h12a4 4 0 0 0 4-4V4a4 4 0 0 0-4-4z" fill="#fff"/></svg>