<svg width="24" height="24" viewBox="0 0 24 24" fill="none" xmlns="http://www.w3.org/2000/svg" preserveAspectRatio="none"><path fill="#169BF4" d="M13.001 6h2v4h-2zm4-2h2v6h-2zm4-2h2v8h-2z"/><path fill-rule="evenodd" clip-rule="evenodd" d="M4.001 5c0 1.654 1.346 3 3 3s3-1.346 3-3-1.346-3-3-3-3 1.346-3 3zm2 0c0-.551.449-1 1-1 .551 0 1 .449 1 1 0 .551-.449 1-1 1-.551 0-1-.449-1-1zm-2 16a1 1 0 0 0 1 1h4a1 1 0 0 0 1-1v-4h1a1 1 0 0 0 1-1v-3c0-2.757-2.243-5-5-5s-5 2.243-5 5v3a1 1 0 0 0 1 1h1v4zm4-1h-2v-4a1 1 0 0 0-1-1h-1v-2c0-1.654 1.346-3 3-3s3 1.346 3 3v2h-1a1 1 0 0 0-1 1v4z" fill="#169BF4"/><path fill="#169BF4" d="M13.001 11h10v2h-10z"/></svg>