<svg width="94" height="64" viewBox="0 0 94 64" fill="none" xmlns="http://www.w3.org/2000/svg" preserveAspectRatio="none"><path d="M20.464 24.294c0 9.27-3.987 17.134-9.51 19.887-1.987.988-4.337-.449-4.337-2.64V7.044c0-2.191 2.35-3.628 4.338-2.638 5.522 2.751 9.51 10.615 9.51 19.888z" fill="#FFD17E"/><path d="M20.464 24.294c0 9.27-3.987 17.134-9.51 19.887-1.987.988-4.337-.449-4.337-2.64V24.294h13.847z" fill="#FFB739"/><path d="M22.348 18.861v10.863H5.526C2.473 29.724 0 27.293 0 24.294c0-3 2.47-5.433 5.526-5.433h16.822z" fill="#FF2B59"/><path d="M22.348 24.294v5.43H5.526C2.473 29.724 0 27.293 0 24.294h22.348z" fill="#B33E78"/><path d="M37.217 35.061l7.926 26.73c.373 1.258 1.546 2.122 2.878 2.122h18.373c1.333 0 2.505-.864 2.878-2.122L77.2 35.06H37.217z" fill="#FFB739"/><path d="M94 24.294c0 7.89-5.736 14.9-14.614 19.319-6.162 3.065-13.834 4.885-22.154 4.885-17.166 0-31.584-7.744-35.633-18.215a16.514 16.514 0 0 1-1.135-5.99c0-2.067.393-4.074 1.135-5.99C25.648 7.83 40.066.086 57.232.086c8.32 0 15.992 1.82 22.154 4.885C88.264 9.392 94 16.402 94 24.294z" fill="#FF9441"/><path d="M94 24.294c0 7.89-5.736 14.9-14.614 19.319-6.162 3.065-13.834 4.885-22.154 4.885-17.166 0-31.584-7.744-35.633-18.215a16.514 16.514 0 0 1-1.135-5.99H94z" fill="#FF7149"/><path d="M93.952 24.294c0 4.354-19.624 7.884-43.835 7.884-10.89 0-20.854-.714-28.518-1.895a16.514 16.514 0 0 1-1.135-5.99c0-2.067.393-4.074 1.135-5.99 7.664-1.182 17.629-1.896 28.518-1.896 24.21 0 43.835 3.53 43.835 7.887z" fill="#FFD17E"/><path d="M93.952 24.294c0 4.354-19.624 7.884-43.835 7.884-10.89 0-20.854-.714-28.518-1.895a16.514 16.514 0 0 1-1.135-5.99h73.488z" fill="#FFB739"/><path d="M94 24.294c0 7.89-5.736 14.9-14.614 19.319-4.689-5.116-7.541-11.891-7.541-19.32 0-7.43 2.852-14.204 7.54-19.32C88.265 9.391 94 16.4 94 24.292z" fill="#FF2B59"/><path d="M94 24.294c0 7.89-5.736 14.9-14.614 19.319-4.689-5.116-7.541-11.891-7.541-19.32H94zM60.861 52.986h-7.067c-1.656 0-2.998 1.32-2.998 2.947 0 1.628 1.342 2.947 2.998 2.947h7.067c1.656 0 2.998-1.32 2.998-2.947s-1.342-2.947-2.998-2.947z" fill="#B33E78"/></svg>